Aleo-Light Italic.ufo
<glyph name="numbersign" format="1">
  <advance width="577"/>
  <unicode hex="0023"/>
  <note>
    numbersign
  </note>
  <outline>
    <contour>
      <point x="358" y="222" type="line"/>
      <point x="488" y="222" type="line"/>
      <point x="493" y="244" type="line"/>
      <point x="494" y="253"/>
      <point x="490" y="256"/>
      <point x="480" y="256" type="curve" smooth="yes"/>
      <point x="367" y="256" type="line"/>
      <point x="432" y="451" type="line"/>
      <point x="524" y="451" type="line" smooth="yes"/>
      <point x="537" y="451"/>
      <point x="546" y="457"/>
      <point x="549" y="468" type="curve" smooth="yes"/>
      <point x="554" y="486" type="line"/>
      <point x="441" y="486" type="line"/>
      <point x="511" y="692" type="line"/>
      <point x="512" y="702"/>
      <point x="507" y="708"/>
      <point x="497" y="708" type="curve" smooth="yes"/>
      <point x="476" y="708" type="line"/>
      <point x="401" y="486" type="line"/>
      <point x="252" y="486" type="line"/>
      <point x="327" y="708" type="line"/>
      <point x="306" y="708" type="line" smooth="yes"/>
      <point x="297" y="708"/>
      <point x="286" y="703"/>
      <point x="281" y="688" type="curve" smooth="yes"/>
      <point x="212" y="486" type="line"/>
      <point x="106" y="486" type="line" smooth="yes"/>
      <point x="93" y="486"/>
      <point x="85" y="481"/>
      <point x="82" y="470" type="curve" smooth="yes"/>
      <point x="77" y="451" type="line"/>
      <point x="203" y="451" type="line"/>
      <point x="138" y="256" type="line"/>
      <point x="29" y="256" type="line"/>
      <point x="24" y="236" type="line"/>
      <point x="23" y="230"/>
      <point x="25" y="222"/>
      <point x="37" y="222" type="curve" smooth="yes"/>
      <point x="129" y="222" type="line"/>
      <point x="55" y="0" type="line"/>
      <point x="76" y="0" type="line" smooth="yes"/>
      <point x="91" y="0"/>
      <point x="95" y="7"/>
      <point x="101" y="20" type="curve"/>
      <point x="169" y="222" type="line"/>
      <point x="318" y="222" type="line"/>
      <point x="249" y="16" type="line"/>
      <point x="247" y="6"/>
      <point x="253" y="0"/>
      <point x="263" y="0" type="curve" smooth="yes"/>
      <point x="284" y="0" type="line"/>
    </contour>
    <contour>
      <point x="178" y="256" type="line"/>
      <point x="243" y="451" type="line"/>
      <point x="392" y="451" type="line"/>
      <point x="327" y="256" type="line"/>
    </contour>
  </outline>
</glyph>
<glyph name="ampersand" format="1">
  <advance width="662"/>
  <unicode hex="0026"/>
  <note>
    ampersand
  </note>
  <outline>
    <contour>
      <point x="270" y="716"/>
      <point x="186" y="650"/>
      <point x="173" y="552" type="curve" smooth="yes"/>
      <point x="165" y="491"/>
      <point x="184" y="448"/>
      <point x="224" y="394" type="curve"/>
      <point x="130" y="360"/>
      <point x="43" y="281"/>
      <point x="29" y="181" type="curve" smooth="yes"/>
      <point x="15" y="75"/>
      <point x="94" y="-8"/>
      <point x="209" y="-8" type="curve" smooth="yes"/>
      <point x="304" y="-8"/>
      <point x="410" y="40"/>
      <point x="475" y="112" type="curve"/>
      <point x="565" y="11" type="line"/>
      <point x="572" y="3"/>
      <point x="579" y="0"/>
      <point x="591" y="0" type="curve" smooth="yes"/>
      <point x="636" y="0" type="line"/>
      <point x="505" y="146" type="line"/>
      <point x="550" y="202"/>
      <point x="583" y="270"/>
      <point x="594" y="338" type="curve"/>
      <point x="566" y="338" type="line" smooth="yes"/>
      <point x="559" y="338"/>
      <point x="554" y="332"/>
      <point x="552" y="324" type="curve" smooth="yes"/>
      <point x="539" y="273"/>
      <point x="512" y="216"/>
      <point x="480" y="174" type="curve"/>
      <point x="284" y="394" type="line" smooth="yes"/>
      <point x="237" y="446"/>
      <point x="211" y="492"/>
      <point x="218" y="553" type="curve" smooth="yes"/>
      <point x="227" y="624"/>
      <point x="286" y="678"/>
      <point x="367" y="678" type="curve" smooth="yes"/>
      <point x="428" y="678"/>
      <point x="471" y="636"/>
      <point x="477" y="580" type="curve"/>
      <point x="478" y="573"/>
      <point x="484" y="567"/>
      <point x="497" y="569" type="curve"/>
      <point x="519" y="574" type="line"/>
      <point x="527" y="654"/>
      <point x="454" y="716"/>
      <point x="371" y="716" type="curve" smooth="yes"/>
    </contour>
    <contour>
      <point x="87" y="263"/>
      <point x="155" y="334"/>
      <point x="244" y="369" type="curve"/>
      <point x="451" y="138" type="line"/>
      <point x="388" y="71"/>
      <point x="310" y="31"/>
      <point x="221" y="31" type="curve" smooth="yes"/>
      <point x="135" y="31"/>
      <point x="67" y="91"/>
      <point x="78" y="184" type="curve" smooth="yes"/>
    </contour>
  </outline>
</glyph>
<glyph name="parenright" format="1">
  <advance width="288"/>
  <unicode hex="0029"/>
  <note>
    parenright
  </note>
  <outline>
    <contour>
      <point x="141" y="60"/>
      <point x="22" y="-99" type="curve" smooth="yes"/>
      <point x="19" y="-102"/>
      <point x="13" y="-115"/>
      <point x="23" y="-120" type="curve"/>
      <point x="42" y="-133" type="line"/>
      <point x="176" y="42"/>
      <point x="241" y="207"/>
      <point x="241" y="428" type="curve" smooth="yes"/>
      <point x="241" y="543"/>
      <point x="209" y="658"/>
      <point x="152" y="763" type="curve"/>
      <point x="130" y="750" type="line"/>
      <point x="122" y="745"/>
      <point x="119" y="737"/>
      <point x="123" y="728" type="curve" smooth="yes"/>
      <point x="171" y="633"/>
      <point x="196" y="533"/>
      <point x="199" y="427" type="curve" smooth="yes"/>
      <point x="204" y="242"/>
    </contour>
  </outline>
</glyph>
<glyph name="asterisk" format="1">
  <advance width="372"/>
  <unicode hex="002A"/>
  <note>
    asterisk
  </note>
  <outline>
    <contour>
      <point x="159" y="448" type="line"/>
      <point x="185" y="448" type="line"/>
      <point x="198" y="556" type="line"/>
      <point x="200" y="565"/>
      <point x="198" y="568"/>
      <point x="195" y="586" type="curve"/>
      <point x="198" y="582"/>
      <point x="208" y="570"/>
      <point x="216" y="565" type="curve" smooth="yes"/>
      <point x="305" y="510" type="line"/>
      <point x="320" y="532" type="line"/>
      <point x="232" y="588" type="line" smooth="yes"/>
      <point x="224" y="593"/>
      <point x="216" y="595"/>
      <point x="204" y="597" type="curve"/>
      <point x="216" y="599"/>
      <point x="219" y="599"/>
      <point x="235" y="608" type="curve"/>
      <point x="335" y="662" type="line"/>
      <point x="325" y="684" type="line"/>
      <point x="224" y="630" type="line" smooth="yes"/>
      <point x="214" y="625"/>
      <point x="206" y="618"/>
      <point x="198" y="608" type="curve"/>
      <point x="204" y="621"/>
      <point x="206" y="626"/>
      <point x="208" y="640" type="curve"/>
      <point x="221" y="746" type="line"/>
      <point x="195" y="746" type="line"/>
      <point x="182" y="639" type="line"/>
      <point x="181" y="630"/>
      <point x="183" y="617"/>
      <point x="186" y="607" type="curve"/>
      <point x="182" y="613"/>
      <point x="173" y="625"/>
      <point x="164" y="630" type="curve" smooth="yes"/>
      <point x="76" y="685" type="line"/>
      <point x="60" y="662" type="line"/>
      <point x="149" y="607" type="line"/>
      <point x="152" y="605"/>
      <point x="164" y="599"/>
      <point x="176" y="597" type="curve"/>
      <point x="171" y="596"/>
      <point x="154" y="592"/>
      <point x="146" y="587" type="curve"/>
      <point x="46" y="532" type="line"/>
      <point x="55" y="510" type="line"/>
      <point x="156" y="565" type="line"/>
      <point x="167" y="571"/>
      <point x="172" y="572"/>
      <point x="182" y="585" type="curve"/>
      <point x="177" y="576"/>
      <point x="175" y="571"/>
      <point x="172" y="555" type="curve"/>
    </contour>
  </outline>
</glyph>
<glyph name="hyphen" format="1">
  <advance width="363"/>
  <unicode hex="002D"/>
  <note>
    hyphen
  </note>
  <outline>
    <contour>
      <point x="69" y="317" type="line"/>
      <point x="64" y="276" type="line"/>
      <point x="296" y="276" type="line"/>
      <point x="301" y="317" type="line"/>
    </contour>
  </outline>
</glyph>
<glyph name="slash" format="1">
  <advance width="493"/>
  <unicode hex="002F"/>
  <note>
    slash
  </note>
  <outline>
    <contour>
      <point x="472" y="728" type="line"/>
      <point x="452" y="728" type="line" smooth="yes"/>
      <point x="439" y="728"/>
      <point x="430" y="721"/>
      <point x="423" y="709" type="curve"/>
      <point x="20" y="-42" type="line"/>
      <point x="39" y="-42" type="line" smooth="yes"/>
      <point x="48" y="-42"/>
      <point x="64" y="-36"/>
      <point x="70" y="-22" type="curve"/>
    </contour>
  </outline>
</glyph>
<glyph name="four" format="1">
  <advance width="579"/>
  <unicode hex="0034"/>
  <note>
    four
  </note>
  <outline>
    <contour>
      <point x="424" y="241" type="line"/>
      <point x="481" y="708" type="line"/>
      <point x="439" y="708" type="line"/>
      <point x="26" y="238" type="line"/>
      <point x="27" y="215" type="line"/>
      <point x="28" y="206"/>
      <point x="35" y="203"/>
      <point x="43" y="203" type="curve" smooth="yes"/>
      <point x="376" y="203" type="line"/>
      <point x="351" y="0" type="line"/>
      <point x="394" y="0" type="line"/>
      <point x="419" y="203" type="line"/>
      <point x="535" y="203" type="line" smooth="yes"/>
      <point x="544" y="203"/>
      <point x="549" y="207"/>
      <point x="550" y="215" type="curve"/>
      <point x="553" y="241" type="line"/>
    </contour>
    <contour>
      <point x="426" y="612" type="line"/>
      <point x="381" y="241" type="line"/>
      <point x="78" y="241" type="line"/>
      <point x="433" y="649" type="line"/>
    </contour>
  </outline>
</glyph>
<glyph name="five" format="1">
  <advance width="538"/>
  <unicode hex="0035"/>
  <note>
    five
  </note>
  <outline>
    <contour>
      <point x="510" y="708" type="line"/>
      <point x="192" y="708" type="line"/>
      <point x="98" y="394" type="line"/>
      <point x="127" y="384" type="line"/>
      <point x="166" y="395"/>
      <point x="221" y="404"/>
      <point x="258" y="404" type="curve" smooth="yes"/>
      <point x="373" y="404"/>
      <point x="435" y="342"/>
      <point x="422" y="230" type="curve" smooth="yes"/>
      <point x="409" y="116"/>
      <point x="323" y="34"/>
      <point x="203" y="34" type="curve" smooth="yes"/>
      <point x="159" y="34"/>
      <point x="109" y="50"/>
      <point x="70" y="74" type="curve" smooth="yes"/>
      <point x="56" y="83"/>
      <point x="47" y="86"/>
      <point x="37" y="74" type="curve"/>
      <point x="20" y="55" type="line"/>
      <point x="63" y="17"/>
      <point x="129" y="-8"/>
      <point x="196" y="-8" type="curve" smooth="yes"/>
      <point x="340" y="-8"/>
      <point x="450" y="90"/>
      <point x="470" y="232" type="curve" smooth="yes"/>
      <point x="487" y="361"/>
      <point x="412" y="444"/>
      <point x="272" y="444" type="curve" smooth="yes"/>
      <point x="241" y="444"/>
      <point x="185" y="437"/>
      <point x="149" y="428" type="curve"/>
      <point x="220" y="664" type="line"/>
      <point x="476" y="664" type="line" smooth="yes"/>
      <point x="490" y="664"/>
      <point x="504" y="668"/>
      <point x="507" y="687" type="curve" smooth="yes"/>
    </contour>
  </outline>
</glyph>
<glyph name="colon" format="1">
  <advance width="235"/>
  <unicode hex="003A"/>
  <note>
    colon
  </note>
  <outline>
    <contour>
      <point x="111" y="-8"/>
      <point x="135" y="14"/>
      <point x="137" y="39" type="curve" smooth="yes"/>
      <point x="140" y="63"/>
      <point x="123" y="85"/>
      <point x="97" y="85" type="curve" smooth="yes"/>
      <point x="71" y="85"/>
      <point x="47" y="63"/>
      <point x="45" y="39" type="curve" smooth="yes"/>
      <point x="43" y="14"/>
      <point x="60" y="-8"/>
      <point x="86" y="-8" type="curve" smooth="yes"/>
    </contour>
    <contour>
      <point x="160" y="391"/>
      <point x="184" y="413"/>
      <point x="186" y="438" type="curve" smooth="yes"/>
      <point x="189" y="462"/>
      <point x="172" y="484"/>
      <point x="146" y="484" type="curve" smooth="yes"/>
      <point x="120" y="484"/>
      <point x="96" y="462"/>
      <point x="94" y="438" type="curve" smooth="yes"/>
      <point x="92" y="413"/>
      <point x="109" y="391"/>
      <point x="135" y="391" type="curve" smooth="yes"/>
    </contour>
  </outline>
</glyph>
<glyph name="equal" format="1">
  <advance width="552"/>
  <unicode hex="003D"/>
  <note>
    equal
  </note>
  <outline>
    <contour>
      <point x="65" y="278" type="line"/>
      <point x="60" y="241" type="line"/>
      <point x="474" y="241" type="line"/>
      <point x="478" y="278" type="line"/>
    </contour>
    <contour>
      <point x="84" y="434" type="line"/>
      <point x="79" y="398" type="line"/>
      <point x="493" y="398" type="line"/>
      <point x="497" y="434" type="line"/>
    </contour>
  </outline>
</glyph>
<glyph name="M" format="1">
  <advance width="980"/>
  <unicode hex="004D"/>
  <note>
    M
  </note>
  <outline>
    <contour>
      <point x="946" y="671" type="line"/>
      <point x="959" y="672"/>
      <point x="967" y="678"/>
      <point x="968" y="689" type="curve"/>
      <point x="971" y="708" type="line"/>
      <point x="851" y="708" type="line" smooth="yes"/>
      <point x="844" y="708"/>
      <point x="839" y="708"/>
      <point x="831" y="699" type="curve"/>
      <point x="493" y="207" type="line"/>
      <point x="487" y="199"/>
      <point x="481" y="187"/>
      <point x="475" y="176" type="curve"/>
      <point x="473" y="187"/>
      <point x="470" y="197"/>
      <point x="466" y="206" type="curve" smooth="yes"/>
      <point x="241" y="699" type="line" smooth="yes"/>
      <point x="237" y="707"/>
      <point x="233" y="708"/>
      <point x="223" y="708" type="curve" smooth="yes"/>
      <point x="103" y="708" type="line"/>
      <point x="101" y="689" type="line" smooth="yes"/>
      <point x="100" y="678"/>
      <point x="106" y="672"/>
      <point x="119" y="671" type="curve"/>
      <point x="183" y="669" type="line"/>
      <point x="106" y="40" type="line"/>
      <point x="41" y="38" type="line"/>
      <point x="28" y="37"/>
      <point x="20" y="31"/>
      <point x="19" y="20" type="curve"/>
      <point x="16" y="0" type="line"/>
      <point x="232" y="0" type="line"/>
      <point x="234" y="20" type="line" smooth="yes"/>
      <point x="235" y="31"/>
      <point x="229" y="37"/>
      <point x="216" y="38" type="curve"/>
      <point x="150" y="40" type="line"/>
      <point x="219" y="603" type="line" smooth="yes"/>
      <point x="220" y="612"/>
      <point x="221" y="621"/>
      <point x="221" y="631" type="curve"/>
      <point x="446" y="136" type="line" smooth="yes"/>
      <point x="450" y="127"/>
      <point x="457" y="123"/>
      <point x="465" y="123" type="curve" smooth="yes"/>
      <point x="473" y="123" type="line" smooth="yes"/>
      <point x="482" y="123"/>
      <point x="488" y="127"/>
      <point x="494" y="136" type="curve" smooth="yes"/>
      <point x="834" y="631" type="line"/>
      <point x="832" y="621"/>
      <point x="830" y="612"/>
      <point x="829" y="603" type="curve" smooth="yes"/>
      <point x="760" y="40" type="line"/>
      <point x="693" y="38" type="line"/>
      <point x="680" y="37"/>
      <point x="672" y="31"/>
      <point x="671" y="20" type="curve"/>
      <point x="668" y="0" type="line"/>
      <point x="884" y="0" type="line"/>
      <point x="886" y="20" type="line" smooth="yes"/>
      <point x="887" y="31"/>
      <point x="882" y="37"/>
      <point x="869" y="38" type="curve"/>
      <point x="805" y="40" type="line"/>
      <point x="882" y="669" type="line"/>
    </contour>
    <contour>
      <point x="490" y="708" type="move" name="top"/>
    </contour>
    <contour>
      <point x="490" y="0" type="move" name="bottom"/>
    </contour>
  </outline>
</glyph>
<glyph name="N" format="1">
  <advance width="827"/>
  <unicode hex="004E"/>
  <note>
    N
  </note>
  <outline>
    <contour>
      <point x="602" y="708" type="line"/>
      <point x="600" y="689" type="line" smooth="yes"/>
      <point x="599" y="678"/>
      <point x="604" y="672"/>
      <point x="617" y="671" type="curve"/>
      <point x="684" y="669" type="line"/>
      <point x="616" y="114" type="line" smooth="yes"/>
      <point x="615" y="105"/>
      <point x="614" y="95"/>
      <point x="614" y="85" type="curve"/>
      <point x="231" y="698" type="line"/>
      <point x="227" y="705"/>
      <point x="221" y="708"/>
      <point x="213" y="708" type="curve" smooth="yes"/>
      <point x="103" y="708" type="line"/>
      <point x="101" y="688" type="line" smooth="yes"/>
      <point x="100" y="677"/>
      <point x="106" y="671"/>
      <point x="119" y="670" type="curve"/>
      <point x="183" y="668" type="line"/>
      <point x="106" y="40" type="line"/>
      <point x="41" y="38" type="line"/>
      <point x="28" y="37"/>
      <point x="20" y="31"/>
      <point x="19" y="20" type="curve"/>
      <point x="16" y="0" type="line"/>
      <point x="232" y="0" type="line"/>
      <point x="234" y="20" type="line" smooth="yes"/>
      <point x="235" y="31"/>
      <point x="229" y="37"/>
      <point x="216" y="38" type="curve"/>
      <point x="150" y="40" type="line"/>
      <point x="218" y="595" type="line" smooth="yes"/>
      <point x="219" y="604"/>
      <point x="220" y="614"/>
      <point x="220" y="624" type="curve"/>
      <point x="605" y="10" type="line"/>
      <point x="609" y="3"/>
      <point x="614" y="0"/>
      <point x="622" y="0" type="curve" smooth="yes"/>
      <point x="647" y="0" type="line"/>
      <point x="729" y="669" type="line"/>
      <point x="793" y="671" type="line"/>
      <point x="806" y="672"/>
      <point x="814" y="678"/>
      <point x="815" y="689" type="curve"/>
      <point x="818" y="708" type="line"/>
    </contour>
    <contour>
      <point x="452" y="708" type="move" name="top"/>
    </contour>
    <contour>
      <point x="414" y="0" type="move" name="bottom"/>
    </contour>
  </outline>
</glyph>
<glyph name="O" format="1">
  <advance width="747"/>
  <unicode hex="004F"/>
  <note>
    O
  </note>
  <outline>
    <contour>
      <point x="739" y="563"/>
      <point x="625" y="716"/>
      <point x="419" y="716" type="curve" smooth="yes"/>
      <point x="218" y="716"/>
      <point x="65" y="568"/>
      <point x="37" y="354" type="curve" smooth="yes"/>
      <point x="11" y="149"/>
      <point x="122" y="-8"/>
      <point x="330" y="-8" type="curve" smooth="yes"/>
      <point x="535" y="-8"/>
      <point x="686" y="141"/>
      <point x="712" y="354" type="curve" smooth="yes"/>
    </contour>
    <contour>
      <point x="638" y="173"/>
      <point x="521" y="37"/>
      <point x="335" y="37" type="curve" smooth="yes"/>
      <point x="158" y="37"/>
      <point x="67" y="163"/>
      <point x="90" y="354" type="curve" smooth="yes"/>
      <point x="113" y="540"/>
      <point x="236" y="672"/>
      <point x="413" y="672" type="curve" smooth="yes"/>
      <point x="591" y="672"/>
      <point x="682" y="544"/>
      <point x="659" y="354" type="curve" smooth="yes"/>
    </contour>
    <contour>
      <point x="374" y="0" type="move" name="bottom"/>
    </contour>
    <contour>
      <point x="672" y="10" type="move" name="ogonek"/>
    </contour>
    <contour>
      <point x="419" y="708" type="move" name="top"/>
    </contour>
    <contour>
      <point x="727" y="708" type="move" name="topright"/>
    </contour>
    <contour>
      <point x="20" y="708" type="move" name="topleft"/>
    </contour>
    <contour>
      <point x="374" y="354" type="move" name="center"/>
    </contour>
  </outline>
</glyph>
<glyph name="R" format="1">
  <advance width="644"/>
  <unicode hex="0052"/>
  <note>
    R
  </note>
  <outline>
    <contour>
      <point x="554" y="39" type="line"/>
      <point x="374" y="306" type="line" smooth="yes"/>
      <point x="369" y="314"/>
      <point x="362" y="321"/>
      <point x="355" y="326" type="curve"/>
      <point x="472" y="339"/>
      <point x="567" y="409"/>
      <point x="580" y="522" type="curve" smooth="yes"/>
      <point x="595" y="657"/>
      <point x="506" y="708"/>
      <point x="359" y="708" type="curve" smooth="yes"/>
      <point x="103" y="708" type="line"/>
      <point x="101" y="689" type="line" smooth="yes"/>
      <point x="100" y="678"/>
      <point x="106" y="672"/>
      <point x="119" y="671" type="curve"/>
      <point x="183" y="669" type="line"/>
      <point x="106" y="40" type="line"/>
      <point x="41" y="38" type="line"/>
      <point x="28" y="37"/>
      <point x="20" y="31"/>
      <point x="19" y="20" type="curve"/>
      <point x="16" y="0" type="line"/>
      <point x="236" y="0" type="line"/>
      <point x="238" y="20" type="line" smooth="yes"/>
      <point x="239" y="31"/>
      <point x="234" y="37"/>
      <point x="221" y="38" type="curve"/>
      <point x="157" y="40" type="line"/>
      <point x="191" y="320" type="line"/>
      <point x="275" y="320" type="line" smooth="yes"/>
      <point x="300" y="320"/>
      <point x="308" y="318"/>
      <point x="321" y="300" type="curve" smooth="yes"/>
      <point x="512" y="13" type="line"/>
      <point x="518" y="4"/>
      <point x="525" y="0"/>
      <point x="536" y="0" type="curve"/>
      <point x="606" y="0" type="line"/>
      <point x="609" y="20" type="line"/>
      <point x="610" y="31"/>
      <point x="604" y="37"/>
      <point x="591" y="38" type="curve"/>
    </contour>
    <contour>
      <point x="196" y="358" type="line"/>
      <point x="234" y="668" type="line"/>
      <point x="354" y="668" type="line" smooth="yes"/>
      <point x="467" y="668"/>
      <point x="543" y="628"/>
      <point x="530" y="518" type="curve" smooth="yes"/>
      <point x="518" y="415"/>
      <point x="428" y="358"/>
      <point x="310" y="358" type="curve" smooth="yes"/>
    </contour>
    <contour>
      <point x="359" y="708" type="move" name="top"/>
    </contour>
    <contour>
      <point x="322" y="0" type="move" name="bottom"/>
    </contour>
  </outline>
</glyph>
<glyph name="Y" format="1">
  <advance width="680"/>
  <unicode hex="0059"/>
  <note>
    Y
  </note>
  <outline>
    <contour>
      <point x="486" y="708" type="line"/>
      <point x="483" y="689" type="line"/>
      <point x="482" y="678"/>
      <point x="488" y="672"/>
      <point x="501" y="671" type="curve"/>
      <point x="553" y="669" type="line"/>
      <point x="331" y="370" type="line" smooth="yes"/>
      <point x="324" y="360"/>
      <point x="310" y="335"/>
      <point x="305" y="326" type="curve"/>
      <point x="302" y="335"/>
      <point x="294" y="360"/>
      <point x="289" y="370" type="curve" smooth="yes"/>
      <point x="140" y="669" type="line"/>
      <point x="192" y="671" type="line"/>
      <point x="205" y="672"/>
      <point x="212" y="678"/>
      <point x="214" y="689" type="curve"/>
      <point x="217" y="708" type="line"/>
      <point x="32" y="708" type="line"/>
      <point x="30" y="689" type="line" smooth="yes"/>
      <point x="29" y="678"/>
      <point x="34" y="672"/>
      <point x="47" y="671" type="curve"/>
      <point x="84" y="669" type="line"/>
      <point x="274" y="292" type="line"/>
      <point x="243" y="40" type="line"/>
      <point x="179" y="38" type="line"/>
      <point x="166" y="37"/>
      <point x="158" y="31"/>
      <point x="157" y="20" type="curve"/>
      <point x="154" y="0" type="line"/>
      <point x="374" y="0" type="line"/>
      <point x="377" y="20" type="line"/>
      <point x="378" y="31"/>
      <point x="372" y="37"/>
      <point x="359" y="38" type="curve"/>
      <point x="295" y="40" type="line"/>
      <point x="326" y="292" type="line"/>
      <point x="609" y="669" type="line"/>
      <point x="646" y="671" type="line"/>
      <point x="659" y="672"/>
      <point x="667" y="678"/>
      <point x="668" y="689" type="curve" smooth="yes"/>
      <point x="670" y="708" type="line"/>
    </contour>
    <contour>
      <point x="340" y="708" type="move" name="top"/>
    </contour>
    <contour>
      <point x="340" y="0" type="move" name="bottom"/>
    </contour>
    <contour>
      <point x="20" y="708" type="move" name="topleft"/>
    </contour>
  </outline>
</glyph>
<glyph name="bracketleft" format="1">
  <advance width="308"/>
  <unicode hex="005B"/>
  <note>
    bracketleft
  </note>
  <outline>
    <contour>
      <point x="25" y="-132" type="line"/>
      <point x="184" y="-132" type="line"/>
      <point x="186" y="-114" type="line"/>
      <point x="187" y="-104"/>
      <point x="181" y="-100"/>
      <point x="172" y="-100" type="curve" smooth="yes"/>
      <point x="69" y="-100" type="line"/>
      <point x="171" y="726" type="line"/>
      <point x="274" y="726" type="line" smooth="yes"/>
      <point x="284" y="726"/>
      <point x="289" y="731"/>
      <point x="291" y="740" type="curve"/>
      <point x="293" y="758" type="line"/>
      <point x="134" y="758" type="line"/>
    </contour>
  </outline>
</glyph>
<glyph name="bracketright" format="1">
  <advance width="316"/>
  <unicode hex="005D"/>
  <note>
    bracketright
  </note>
  <outline>
    <contour>
      <point x="285" y="758" type="line"/>
      <point x="126" y="758" type="line"/>
      <point x="124" y="740" type="line"/>
      <point x="123" y="730"/>
      <point x="129" y="726"/>
      <point x="138" y="726" type="curve" smooth="yes"/>
      <point x="241" y="726" type="line"/>
      <point x="139" y="-100" type="line"/>
      <point x="36" y="-100" type="line" smooth="yes"/>
      <point x="26" y="-100"/>
      <point x="21" y="-105"/>
      <point x="19" y="-114" type="curve"/>
      <point x="17" y="-132" type="line"/>
      <point x="176" y="-132" type="line"/>
    </contour>
  </outline>
</glyph>
<glyph name="grave" format="1">
  <advance width="251"/>
  <unicode hex="0060"/>
  <note>
    grave
  </note>
  <outline>
    <contour>
      <point x="106" y="716" type="line"/>
      <point x="199" y="589" type="line"/>
      <point x="203" y="583"/>
      <point x="209" y="580"/>
      <point x="217" y="580" type="curve" smooth="yes"/>
      <point x="244" y="580" type="line"/>
      <point x="180" y="700" type="line" smooth="yes"/>
      <point x="175" y="709"/>
      <point x="169" y="716"/>
      <point x="152" y="716" type="curve" smooth="yes"/>
    </contour>
  </outline>
</glyph>
<glyph name="a" format="1">
  <advance width="502"/>
  <unicode hex="0061"/>
  <note>
    a
  </note>
  <outline>
    <contour>
      <point x="383" y="39" type="line"/>
      <point x="437" y="481" type="line"/>
      <point x="405" y="498"/>
      <point x="369" y="504"/>
      <point x="329" y="504" type="curve" smooth="yes"/>
      <point x="166" y="504"/>
      <point x="26" y="342"/>
      <point x="26" y="167" type="curve" smooth="yes"/>
      <point x="26" y="71"/>
      <point x="61" y="-6"/>
      <point x="152" y="-6" type="curve" smooth="yes"/>
      <point x="241" y="-6"/>
      <point x="313" y="81"/>
      <point x="355" y="172" type="curve"/>
      <point x="338" y="16" type="line"/>
      <point x="338" y="10"/>
      <point x="342" y="0"/>
      <point x="355" y="0" type="curve"/>
      <point x="444" y="0" type="line"/>
      <point x="447" y="20" type="line"/>
      <point x="448" y="31"/>
      <point x="442" y="37"/>
      <point x="429" y="38" type="curve"/>
    </contour>
    <contour>
      <point x="260" y="33"/>
      <point x="167" y="33" type="curve" smooth="yes"/>
      <point x="96" y="33"/>
      <point x="73" y="96"/>
      <point x="73" y="175" type="curve" smooth="yes"/>
      <point x="73" y="320"/>
      <point x="188" y="469"/>
      <point x="324" y="469" type="curve" smooth="yes"/>
      <point x="347" y="469"/>
      <point x="368" y="466"/>
      <point x="388" y="459" type="curve"/>
      <point x="363" y="256" type="line"/>
      <point x="327" y="157"/>
    </contour>
    <contour>
      <point x="452" y="10" type="move" name="ogonek"/>
    </contour>
    <contour>
      <point x="251" y="0" type="move" name="bottom"/>
    </contour>
    <contour>
      <point x="325" y="498" type="move" name="top"/>
    </contour>
  </outline>
</glyph>
<glyph name="g" format="1">
  <advance width="509"/>
  <unicode hex="0067"/>
  <note>
    g
  </note>
  <outline>
    <contour>
      <point x="417" y="391"/>
      <point x="411" y="423"/>
      <point x="398" y="445" type="curve"/>
      <point x="479" y="451" type="line"/>
      <point x="487" y="453"/>
      <point x="493" y="459"/>
      <point x="493" y="465" type="curve"/>
      <point x="495" y="481" type="line"/>
      <point x="365" y="481" type="line"/>
      <point x="338" y="499"/>
      <point x="310" y="506"/>
      <point x="277" y="506" type="curve" smooth="yes"/>
      <point x="171" y="506"/>
      <point x="94" y="424"/>
      <point x="94" y="322" type="curve" smooth="yes"/>
      <point x="94" y="238"/>
      <point x="144" y="183"/>
      <point x="227" y="183" type="curve" smooth="yes"/>
      <point x="264" y="183"/>
      <point x="288" y="191"/>
      <point x="320" y="212" type="curve"/>
      <point x="304" y="187"/>
      <point x="291" y="163"/>
      <point x="291" y="132" type="curve" smooth="yes"/>
      <point x="291" y="114"/>
      <point x="299" y="95"/>
      <point x="311" y="79" type="curve"/>
      <point x="305" y="80"/>
      <point x="257" y="84"/>
      <point x="243" y="84" type="curve" smooth="yes"/>
      <point x="128" y="84"/>
      <point x="6" y="38"/>
      <point x="6" y="-66" type="curve" smooth="yes"/>
      <point x="6" y="-147"/>
      <point x="91" y="-184"/>
      <point x="185" y="-184" type="curve" smooth="yes"/>
      <point x="293" y="-184"/>
      <point x="406" y="-122"/>
      <point x="406" y="-22" type="curve" smooth="yes"/>
      <point x="406" y="12"/>
      <point x="390" y="42"/>
      <point x="366" y="69" type="curve" smooth="yes"/>
      <point x="344" y="94"/>
      <point x="326" y="119"/>
      <point x="326" y="146" type="curve" smooth="yes"/>
      <point x="326" y="165"/>
      <point x="337" y="193"/>
      <point x="349" y="211" type="curve" smooth="yes"/>
      <point x="392" y="272"/>
      <point x="417" y="309"/>
      <point x="417" y="369" type="curve" smooth="yes"/>
    </contour>
    <contour>
      <point x="363" y="-97"/>
      <point x="276" y="-150"/>
      <point x="189" y="-150" type="curve" smooth="yes"/>
      <point x="119" y="-150"/>
      <point x="51" y="-127"/>
      <point x="51" y="-60" type="curve" smooth="yes"/>
      <point x="51" y="19"/>
      <point x="153" y="55"/>
      <point x="247" y="55" type="curve" smooth="yes"/>
      <point x="262" y="55"/>
      <point x="320" y="51"/>
      <point x="336" y="48" type="curve"/>
      <point x="335" y="49" type="line"/>
      <point x="352" y="28"/>
      <point x="363" y="6"/>
      <point x="363" y="-25" type="curve" smooth="yes"/>
    </contour>
    <contour>
      <point x="175" y="214"/>
      <point x="138" y="252"/>
      <point x="138" y="322" type="curve" smooth="yes"/>
      <point x="138" y="403"/>
      <point x="193" y="472"/>
      <point x="272" y="472" type="curve" smooth="yes"/>
      <point x="338" y="472"/>
      <point x="374" y="434"/>
      <point x="374" y="368" type="curve" smooth="yes"/>
      <point x="374" y="287"/>
      <point x="321" y="214"/>
      <point x="238" y="214" type="curve" smooth="yes"/>
    </contour>
    <contour>
      <point x="255" y="498" type="move" name="top"/>
    </contour>
    <contour>
      <point x="255" y="0" type="move" name="bottom"/>
    </contour>
  </outline>
</glyph>
<glyph name="l" format="1">
  <advance width="207"/>
  <unicode hex="006C"/>
  <note>
    l
  </note>
  <outline>
    <contour>
      <point x="90" y="40" type="line"/>
      <point x="174" y="728" type="line"/>
      <point x="55" y="728" type="line"/>
      <point x="52" y="708" type="line"/>
      <point x="51" y="697"/>
      <point x="57" y="691"/>
      <point x="70" y="690" type="curve"/>
      <point x="122" y="688" type="line"/>
      <point x="38" y="0" type="line"/>
      <point x="157" y="0" type="line"/>
      <point x="160" y="20" type="line"/>
      <point x="161" y="31"/>
      <point x="155" y="37"/>
      <point x="142" y="38" type="curve"/>
    </contour>
    <contour>
      <point x="104" y="0" type="move" name="bottom"/>
    </contour>
    <contour>
      <point x="104" y="498" type="move" name="top"/>
    </contour>
    <contour>
      <point x="187" y="498" type="move" name="topright"/>
    </contour>
    <contour>
      <point x="104" y="249" type="move" name="center"/>
    </contour>
  </outline>
</glyph>
<glyph name="p" format="1">
  <advance width="585"/>
  <unicode hex="0070"/>
  <note>
    p
  </note>
  <outline>
    <contour>
      <point x="518" y="506"/>
      <point x="382" y="506" type="curve" smooth="yes"/>
      <point x="309" y="506"/>
      <point x="244" y="467"/>
      <point x="193" y="408" type="curve"/>
      <point x="198" y="486" type="line"/>
      <point x="198" y="496"/>
      <point x="195" y="498"/>
      <point x="185" y="498" type="curve" smooth="yes"/>
      <point x="87" y="498" type="line"/>
      <point x="84" y="479" type="line"/>
      <point x="83" y="468"/>
      <point x="89" y="462"/>
      <point x="102" y="461" type="curve"/>
      <point x="154" y="459" type="line"/>
      <point x="81" y="-136" type="line"/>
      <point x="28" y="-138" type="line"/>
      <point x="15" y="-139"/>
      <point x="7" y="-145"/>
      <point x="6" y="-156" type="curve" smooth="yes"/>
      <point x="4" y="-176" type="line"/>
      <point x="196" y="-176" type="line"/>
      <point x="198" y="-156" type="line" smooth="yes"/>
      <point x="199" y="-145"/>
      <point x="194" y="-139"/>
      <point x="181" y="-138" type="curve"/>
      <point x="129" y="-136" type="line"/>
      <point x="154" y="67" type="line"/>
      <point x="187" y="14"/>
      <point x="233" y="-6"/>
      <point x="297" y="-6" type="curve" smooth="yes"/>
      <point x="435" y="-6"/>
      <point x="529" y="110"/>
      <point x="545" y="252" type="curve" smooth="yes"/>
      <point x="563" y="402"/>
    </contour>
    <contour>
      <point x="411" y="31"/>
      <point x="292" y="31" type="curve" smooth="yes"/>
      <point x="231" y="31"/>
      <point x="186" y="56"/>
      <point x="159" y="109" type="curve"/>
      <point x="191" y="370" type="line"/>
      <point x="237" y="429"/>
      <point x="295" y="467"/>
      <point x="364" y="467" type="curve" smooth="yes"/>
      <point x="481" y="467"/>
      <point x="511" y="379"/>
      <point x="496" y="252" type="curve" smooth="yes"/>
      <point x="480" y="124"/>
    </contour>
    <contour>
      <point x="293" y="498" type="move" name="top"/>
    </contour>
    <contour>
      <point x="293" y="0" type="move" name="bottom"/>
    </contour>
  </outline>
</glyph>
<glyph name="u" format="1">
  <advance width="564"/>
  <unicode hex="0075"/>
  <note>
    u
  </note>
  <outline>
    <contour>
      <point x="442" y="40" type="line"/>
      <point x="498" y="498" type="line"/>
      <point x="450" y="497" type="line"/>
      <point x="378" y="497" type="line"/>
      <point x="376" y="478" type="line" smooth="yes"/>
      <point x="375" y="467"/>
      <point x="380" y="461"/>
      <point x="393" y="460" type="curve"/>
      <point x="446" y="458" type="line"/>
      <point x="404" y="124" type="line"/>
      <point x="357" y="71"/>
      <point x="296" y="30"/>
      <point x="226" y="30" type="curve" smooth="yes"/>
      <point x="138" y="30"/>
      <point x="103" y="87"/>
      <point x="115" y="180" type="curve" smooth="yes"/>
      <point x="154" y="498" type="line"/>
      <point x="106" y="497" type="line"/>
      <point x="34" y="497" type="line"/>
      <point x="32" y="478" type="line" smooth="yes"/>
      <point x="31" y="467"/>
      <point x="36" y="461"/>
      <point x="49" y="460" type="curve"/>
      <point x="102" y="458" type="line"/>
      <point x="67" y="180" type="line" smooth="yes"/>
      <point x="53" y="73"/>
      <point x="95" y="-8"/>
      <point x="210" y="-8" type="curve" smooth="yes"/>
      <point x="284" y="-8"/>
      <point x="348" y="29"/>
      <point x="402" y="87" type="curve"/>
      <point x="398" y="13" type="line"/>
      <point x="397" y="4"/>
      <point x="402" y="0"/>
      <point x="411" y="0" type="curve" smooth="yes"/>
      <point x="509" y="0" type="line"/>
      <point x="511" y="20" type="line" smooth="yes"/>
      <point x="512" y="31"/>
      <point x="507" y="37"/>
      <point x="494" y="38" type="curve"/>
    </contour>
    <contour>
      <point x="508" y="10" type="move" name="ogonek"/>
    </contour>
    <contour>
      <point x="282" y="498" type="move" name="top"/>
    </contour>
    <contour>
      <point x="544" y="498" type="move" name="topright"/>
    </contour>
    <contour>
      <point x="282" y="0" type="move" name="bottom"/>
    </contour>
  </outline>
</glyph>
<glyph name="v" format="1">
  <advance width="581"/>
  <unicode hex="0076"/>
  <note>
    v
  </note>
  <outline>
    <contour>
      <point x="392" y="498" type="line"/>
      <point x="390" y="479" type="line" smooth="yes"/>
      <point x="389" y="468"/>
      <point x="394" y="462"/>
      <point x="407" y="461" type="curve"/>
      <point x="459" y="459" type="line"/>
      <point x="261" y="93" type="line" smooth="yes"/>
      <point x="253" y="79"/>
      <point x="245" y="58"/>
      <point x="243" y="50" type="curve"/>
      <point x="243" y="58"/>
      <point x="241" y="77"/>
      <point x="236" y="93" type="curve"/>
      <point x="128" y="459" type="line"/>
      <point x="180" y="461" type="line"/>
      <point x="193" y="462"/>
      <point x="201" y="468"/>
      <point x="202" y="479" type="curve" smooth="yes"/>
      <point x="204" y="498" type="line"/>
      <point x="30" y="498" type="line"/>
      <point x="28" y="479" type="line" smooth="yes"/>
      <point x="27" y="468"/>
      <point x="32" y="462"/>
      <point x="45" y="461" type="curve"/>
      <point x="78" y="460" type="line"/>
      <point x="215" y="0" type="line"/>
      <point x="257" y="0" type="line"/>
      <point x="507" y="460" type="line"/>
      <point x="542" y="461" type="line"/>
      <point x="555" y="462"/>
      <point x="563" y="468"/>
      <point x="564" y="479" type="curve" smooth="yes"/>
      <point x="566" y="498" type="line"/>
    </contour>
    <contour>
      <point x="291" y="498" type="move" name="top"/>
    </contour>
    <contour>
      <point x="291" y="0" type="move" name="bottom"/>
    </contour>
  </outline>
</glyph>
<glyph name="y" format="1">
  <advance width="579"/>
  <unicode hex="0079"/>
  <note>
    y
  </note>
  <outline>
    <contour>
      <point x="391" y="498" type="line"/>
      <point x="388" y="479" type="line"/>
      <point x="387" y="468"/>
      <point x="393" y="462"/>
      <point x="406" y="461" type="curve"/>
      <point x="457" y="459" type="line"/>
      <point x="259" y="98" type="line"/>
      <point x="244" y="66" type="line"/>
      <point x="239" y="98" type="line"/>
      <point x="127" y="459" type="line"/>
      <point x="179" y="461" type="line"/>
      <point x="192" y="462"/>
      <point x="200" y="468"/>
      <point x="201" y="479" type="curve"/>
      <point x="204" y="498" type="line"/>
      <point x="30" y="498" type="line"/>
      <point x="27" y="479" type="line"/>
      <point x="26" y="468"/>
      <point x="32" y="462"/>
      <point x="45" y="461" type="curve"/>
      <point x="75" y="460" type="line"/>
      <point x="215" y="18" type="line"/>
      <point x="103" y="-176" type="line"/>
      <point x="137" y="-176" type="line" smooth="yes"/>
      <point x="146" y="-176"/>
      <point x="156" y="-169"/>
      <point x="161" y="-160" type="curve" smooth="yes"/>
      <point x="506" y="460" type="line"/>
      <point x="540" y="461" type="line"/>
      <point x="553" y="462"/>
      <point x="561" y="468"/>
      <point x="562" y="479" type="curve"/>
      <point x="565" y="498" type="line"/>
    </contour>
    <contour>
      <point x="290" y="498" type="move" name="top"/>
    </contour>
    <contour>
      <point x="290" y="0" type="move" name="bottom"/>
    </contour>
  </outline>
</glyph>
<glyph name="braceright" format="1">
  <advance width="326"/>
  <unicode hex="007D"/>
  <note>
    braceright
  </note>
  <outline>
    <contour>
      <point x="209" y="379"/>
      <point x="232" y="457" type="curve" smooth="yes"/>
      <point x="229" y="448"/>
      <point x="260" y="543"/>
      <point x="265" y="561" type="curve" smooth="yes"/>
      <point x="297" y="675"/>
      <point x="262" y="758"/>
      <point x="154" y="758" type="curve" smooth="yes"/>
      <point x="126" y="758" type="line"/>
      <point x="124" y="737" type="line"/>
      <point x="124" y="730"/>
      <point x="129" y="726"/>
      <point x="135" y="726" type="curve" smooth="yes"/>
      <point x="151" y="726" type="line" smooth="yes"/>
      <point x="231" y="726"/>
      <point x="250" y="656"/>
      <point x="224" y="563" type="curve" smooth="yes"/>
      <point x="214" y="528"/>
      <point x="203" y="500"/>
      <point x="191" y="457" type="curve" smooth="yes"/>
      <point x="172" y="388"/>
      <point x="173" y="329"/>
      <point x="243" y="313" type="curve"/>
      <point x="183" y="301"/>
      <point x="147" y="241"/>
      <point x="155" y="169" type="curve" smooth="yes"/>
      <point x="159" y="133"/>
      <point x="159" y="112"/>
      <point x="162" y="63" type="curve" smooth="yes"/>
      <point x="168" y="-29"/>
      <point x="130" y="-100"/>
      <point x="50" y="-100" type="curve" smooth="yes"/>
      <point x="33" y="-100" type="line" smooth="yes"/>
      <point x="27" y="-100"/>
      <point x="21" y="-105"/>
      <point x="20" y="-112" type="curve"/>
      <point x="17" y="-132" type="line"/>
      <point x="44" y="-132" type="line" smooth="yes"/>
      <point x="149" y="-132"/>
      <point x="211" y="-54"/>
      <point x="204" y="64" type="curve" smooth="yes"/>
      <point x="202" y="105"/>
      <point x="198" y="147"/>
      <point x="197" y="169" type="curve" smooth="yes"/>
      <point x="192" y="246"/>
      <point x="217" y="298"/>
      <point x="286" y="298" type="curve"/>
      <point x="290" y="328" type="line"/>
      <point x="222" y="328"/>
    </contour>
  </outline>
</glyph>
<glyph name="asciitilde" format="1">
  <advance width="571"/>
  <unicode hex="007E"/>
  <note>
    asciitilde
  </note>
  <outline>
    <contour>
      <point x="321" y="284"/>
      <point x="264" y="346"/>
      <point x="190" y="346" type="curve" smooth="yes"/>
      <point x="117" y="346"/>
      <point x="64" y="289"/>
      <point x="56" y="217" type="curve"/>
      <point x="95" y="217" type="line"/>
      <point x="102" y="269"/>
      <point x="137" y="307"/>
      <point x="188" y="307" type="curve" smooth="yes"/>
      <point x="239" y="307"/>
      <point x="319" y="244"/>
      <point x="382" y="244" type="curve" smooth="yes"/>
      <point x="455" y="244"/>
      <point x="509" y="303"/>
      <point x="516" y="374" type="curve"/>
      <point x="477" y="374" type="line"/>
      <point x="470" y="325"/>
      <point x="439" y="284"/>
      <point x="384" y="284" type="curve" smooth="yes"/>
    </contour>
  </outline>
</glyph>
<glyph name="yen" format="1">
  <advance width="569"/>
  <unicode hex="00A5"/>
  <note>
    yen
  </note>
  <outline>
    <contour>
      <point x="46" y="308" type="line"/>
      <point x="43" y="279" type="line"/>
      <point x="226" y="279" type="line"/>
      <point x="219" y="220" type="line"/>
      <point x="36" y="220" type="line"/>
      <point x="32" y="191" type="line"/>
      <point x="215" y="191" type="line"/>
      <point x="192" y="0" type="line"/>
      <point x="239" y="0" type="line"/>
      <point x="262" y="191" type="line"/>
      <point x="446" y="191" type="line"/>
      <point x="449" y="220" type="line"/>
      <point x="266" y="220" type="line"/>
      <point x="273" y="279" type="line"/>
      <point x="456" y="279" type="line"/>
      <point x="460" y="308" type="line"/>
      <point x="286" y="308" type="line"/>
      <point x="547" y="708" type="line"/>
      <point x="507" y="708" type="line" smooth="yes"/>
      <point x="499" y="708"/>
      <point x="489" y="701"/>
      <point x="486" y="695" type="curve"/>
      <point x="273" y="362" type="line"/>
      <point x="266" y="349"/>
      <point x="260" y="335"/>
      <point x="256" y="326" type="curve"/>
      <point x="255" y="335"/>
      <point x="251" y="349"/>
      <point x="247" y="362" type="curve"/>
      <point x="115" y="695" type="line" smooth="yes"/>
      <point x="112" y="703"/>
      <point x="106" y="708"/>
      <point x="97" y="708" type="curve" smooth="yes"/>
      <point x="57" y="708" type="line"/>
      <point x="219" y="308" type="line"/>
    </contour>
  </outline>
</glyph>
<glyph name="copyright" format="1">
  <advance width="807"/>
  <unicode hex="00A9"/>
  <note>
    copyright
  </note>
  <outline>
    <contour>
      <point x="481" y="177"/>
      <point x="440" y="166"/>
      <point x="387" y="166" type="curve" smooth="yes"/>
      <point x="281" y="166"/>
      <point x="219" y="240"/>
      <point x="234" y="354" type="curve" smooth="yes"/>
      <point x="250" y="470"/>
      <point x="330" y="544"/>
      <point x="442" y="544" type="curve" smooth="yes"/>
      <point x="487" y="544"/>
      <point x="522" y="534"/>
      <point x="554" y="508" type="curve" smooth="yes"/>
      <point x="560" y="503"/>
      <point x="569" y="499"/>
      <point x="577" y="508" type="curve"/>
      <point x="591" y="524" type="line"/>
      <point x="554" y="561"/>
      <point x="506" y="580"/>
      <point x="444" y="580" type="curve" smooth="yes"/>
      <point x="314" y="580"/>
      <point x="206" y="489"/>
      <point x="190" y="354" type="curve" smooth="yes"/>
      <point x="174" y="222"/>
      <point x="250" y="129"/>
      <point x="381" y="129" type="curve" smooth="yes"/>
      <point x="448" y="129"/>
      <point x="502" y="145"/>
      <point x="556" y="194" type="curve"/>
      <point x="542" y="209" type="line"/>
      <point x="539" y="212"/>
      <point x="533" y="215"/>
      <point x="523" y="207" type="curve" smooth="yes"/>
    </contour>
    <contour>
      <point x="19" y="156"/>
      <point x="161" y="-7"/>
      <point x="360" y="-7" type="curve" smooth="yes"/>
      <point x="556" y="-7"/>
      <point x="740" y="151"/>
      <point x="765" y="354" type="curve" smooth="yes"/>
      <point x="789" y="553"/>
      <point x="648" y="715"/>
      <point x="449" y="715" type="curve" smooth="yes"/>
      <point x="251" y="715"/>
      <point x="68" y="552"/>
      <point x="44" y="354" type="curve" smooth="yes"/>
    </contour>
    <contour>
      <point x="97" y="539"/>
      <point x="261" y="688"/>
      <point x="445" y="688" type="curve" smooth="yes"/>
      <point x="630" y="688"/>
      <point x="761" y="536"/>
      <point x="737" y="354" type="curve" smooth="yes"/>
      <point x="713" y="168"/>
      <point x="548" y="20"/>
      <point x="363" y="20" type="curve" smooth="yes"/>
      <point x="178" y="20"/>
      <point x="50" y="173"/>
      <point x="73" y="354" type="curve" smooth="yes"/>
    </contour>
  </outline>
</glyph>
<glyph name="ordfeminine" format="1">
  <advance width="343"/>
  <unicode hex="00AA"/>
  <note>
    ordfeminine
  </note>
  <outline>
    <contour>
      <point x="272" y="420" type="line"/>
      <point x="295" y="608" type="line" smooth="yes"/>
      <point x="303" y="670"/>
      <point x="275" y="715"/>
      <point x="205" y="715" type="curve" smooth="yes"/>
      <point x="159" y="715"/>
      <point x="125" y="700"/>
      <point x="89" y="668" type="curve"/>
      <point x="94" y="657" type="line"/>
      <point x="99" y="647"/>
      <point x="108" y="649"/>
      <point x="117" y="656" type="curve" smooth="yes"/>
      <point x="136" y="671"/>
      <point x="168" y="685"/>
      <point x="198" y="685" type="curve" smooth="yes"/>
      <point x="247" y="685"/>
      <point x="265" y="657"/>
      <point x="259" y="607" type="curve" smooth="yes"/>
      <point x="256" y="582" type="line"/>
      <point x="179" y="581"/>
      <point x="57" y="563"/>
      <point x="51" y="490" type="curve"/>
      <point x="44" y="447"/>
      <point x="72" y="415"/>
      <point x="125" y="415" type="curve" smooth="yes"/>
      <point x="170" y="415"/>
      <point x="208" y="432"/>
      <point x="243" y="463" type="curve"/>
      <point x="244" y="429" type="line"/>
      <point x="244" y="423"/>
      <point x="246" y="419"/>
      <point x="256" y="419" type="curve"/>
    </contour>
    <contour>
      <point x="107" y="441"/>
      <point x="81" y="457"/>
      <point x="85" y="492" type="curve" smooth="yes"/>
      <point x="90" y="543"/>
      <point x="177" y="554"/>
      <point x="253" y="557" type="curve"/>
      <point x="244" y="488" type="line"/>
      <point x="216" y="463"/>
      <point x="178" y="441"/>
      <point x="138" y="441" type="curve" smooth="yes"/>
    </contour>
  </outline>
</glyph>
<glyph name="guillemotleft" format="1">
  <advance width="376"/>
  <unicode hex="00AB"/>
  <note>
    guillemotleft
  </note>
  <outline>
    <contour>
      <point x="43" y="256" type="line"/>
      <point x="140" y="67" type="line"/>
      <point x="156" y="74" type="line"/>
      <point x="166" y="79"/>
      <point x="168" y="89"/>
      <point x="164" y="98" type="curve" smooth="yes"/>
      <point x="90" y="246" type="line"/>
      <point x="87" y="253"/>
      <point x="84" y="257"/>
      <point x="81" y="260" type="curve"/>
      <point x="84" y="263"/>
      <point x="89" y="267"/>
      <point x="94" y="274" type="curve" smooth="yes"/>
      <point x="203" y="420" type="line" smooth="yes"/>
      <point x="208" y="426"/>
      <point x="212" y="438"/>
      <point x="202" y="444" type="curve" smooth="yes"/>
      <point x="188" y="452" type="line"/>
      <point x="44" y="263" type="line"/>
    </contour>
    <contour>
      <point x="170" y="256" type="line"/>
      <point x="268" y="67" type="line"/>
      <point x="284" y="74" type="line"/>
      <point x="293" y="79"/>
      <point x="295" y="91"/>
      <point x="291" y="99" type="curve" smooth="yes"/>
      <point x="218" y="246" type="line"/>
      <point x="215" y="253"/>
      <point x="211" y="257"/>
      <point x="208" y="260" type="curve"/>
      <point x="211" y="263"/>
      <point x="216" y="267"/>
      <point x="221" y="274" type="curve" smooth="yes"/>
      <point x="331" y="421" type="line" smooth="yes"/>
      <point x="338" y="431"/>
      <point x="338" y="439"/>
      <point x="329" y="445" type="curve"/>
      <point x="315" y="452" type="line"/>
      <point x="171" y="263" type="line"/>
    </contour>
  </outline>
</glyph>
<glyph name="threesuperior" format="1">
  <advance width="328"/>
  <unicode hex="00B3"/>
  <note>
    threesuperior
  </note>
  <outline>
    <contour>
      <point x="139" y="812"/>
      <point x="91" y="778"/>
      <point x="72" y="712" type="curve"/>
      <point x="84" y="710" type="line" smooth="yes"/>
      <point x="97" y="707"/>
      <point x="104" y="709"/>
      <point x="108" y="719" type="curve" smooth="yes"/>
      <point x="123" y="756"/>
      <point x="149" y="781"/>
      <point x="193" y="781" type="curve" smooth="yes"/>
      <point x="237" y="781"/>
      <point x="259" y="758"/>
      <point x="255" y="714" type="curve"/>
      <point x="248" y="665"/>
      <point x="210" y="646"/>
      <point x="157" y="644" type="curve"/>
      <point x="154" y="620" type="line"/>
      <point x="211" y="620"/>
      <point x="247" y="603"/>
      <point x="242" y="549" type="curve" smooth="yes"/>
      <point x="237" y="510"/>
      <point x="197" y="476"/>
      <point x="150" y="476" type="curve" smooth="yes"/>
      <point x="107" y="476"/>
      <point x="85" y="496"/>
      <point x="76" y="534" type="curve" smooth="yes"/>
      <point x="74" y="542"/>
      <point x="67" y="549"/>
      <point x="53" y="543" type="curve"/>
      <point x="40" y="538" type="line"/>
      <point x="52" y="472"/>
      <point x="82" y="446"/>
      <point x="148" y="446" type="curve" smooth="yes"/>
      <point x="213" y="446"/>
      <point x="271" y="489"/>
      <point x="279" y="551" type="curve" smooth="yes"/>
      <point x="285" y="593"/>
      <point x="263" y="622"/>
      <point x="214" y="634" type="curve"/>
      <point x="252" y="645"/>
      <point x="284" y="673"/>
      <point x="290" y="720" type="curve" smooth="yes"/>
      <point x="298" y="777"/>
      <point x="254" y="812"/>
      <point x="198" y="812" type="curve" smooth="yes"/>
    </contour>
  </outline>
</glyph>
<glyph name="mu" format="1">
  <advance width="557"/>
  <unicode hex="00B5"/>
  <note>
    mu
  </note>
  <outline>
    <contour>
      <point x="165" y="498" type="line"/>
      <point x="117" y="498" type="line"/>
      <point x="37" y="-155" type="line" smooth="yes"/>
      <point x="36" y="-164"/>
      <point x="40" y="-176"/>
      <point x="56" y="-176" type="curve" smooth="yes"/>
      <point x="80" y="-176" type="line"/>
      <point x="100" y="-12" type="line"/>
      <point x="105" y="42"/>
      <point x="106" y="40"/>
      <point x="106" y="72" type="curve"/>
      <point x="124" y="23"/>
      <point x="166" y="-3"/>
      <point x="230" y="-3" type="curve" smooth="yes"/>
      <point x="302" y="-3"/>
      <point x="359" y="30"/>
      <point x="412" y="87" type="curve"/>
      <point x="408" y="13" type="line"/>
      <point x="407" y="4"/>
      <point x="412" y="0"/>
      <point x="421" y="0" type="curve" smooth="yes"/>
      <point x="447" y="0" type="line"/>
      <point x="508" y="498" type="line"/>
      <point x="460" y="498" type="line"/>
      <point x="414" y="124" type="line"/>
      <point x="367" y="71"/>
      <point x="307" y="30"/>
      <point x="237" y="30" type="curve" smooth="yes"/>
      <point x="148" y="30"/>
      <point x="114" y="88"/>
      <point x="126" y="180" type="curve" smooth="yes"/>
    </contour>
  </outline>
</glyph>
<glyph name="divide" format="1">
  <advance width="526"/>
  <unicode hex="00F7"/>
  <note>
    divide
  </note>
  <outline>
    <contour>
      <point x="32" y="354" type="line"/>
      <point x="28" y="317" type="line"/>
      <point x="497" y="317" type="line"/>
      <point x="501" y="354" type="line"/>
    </contour>
    <contour>
      <point x="306" y="466"/>
      <point x="331" y="488"/>
      <point x="332" y="513" type="curve" smooth="yes"/>
      <point x="335" y="538"/>
      <point x="318" y="560"/>
      <point x="292" y="560" type="curve" smooth="yes"/>
      <point x="266" y="560"/>
      <point x="241" y="538"/>
      <point x="239" y="513" type="curve" smooth="yes"/>
      <point x="237" y="488"/>
      <point x="255" y="466"/>
      <point x="280" y="466" type="curve" smooth="yes"/>
    </contour>
    <contour>
      <point x="263" y="110"/>
      <point x="288" y="132"/>
      <point x="289" y="157" type="curve" smooth="yes"/>
      <point x="292" y="182"/>
      <point x="275" y="204"/>
      <point x="249" y="204" type="curve" smooth="yes"/>
      <point x="223" y="204"/>
      <point x="198" y="182"/>
      <point x="196" y="157" type="curve" smooth="yes"/>
      <point x="194" y="132"/>
      <point x="212" y="110"/>
      <point x="237" y="110" type="curve" smooth="yes"/>
    </contour>
  </outline>
</glyph>
<glyph name="yacute" format="1">
  <advance width="577"/>
  <unicode hex="00FD"/>
  <note>
    yacute
  </note>
  <outline>
    <contour>
      <point x="526" y="497" type="line"/>
      <point x="489" y="497" type="line"/>
      <point x="389" y="497" type="line"/>
      <point x="387" y="478" type="line" smooth="yes"/>
      <point x="386" y="467"/>
      <point x="391" y="461"/>
      <point x="404" y="460" type="curve"/>
      <point x="410" y="460" type="line" smooth="yes"/>
      <point x="412" y="460"/>
      <point x="414" y="459"/>
      <point x="417" y="459" type="curve" smooth="yes"/>
      <point x="432" y="459" type="line" smooth="yes"/>
      <point x="439" y="459"/>
      <point x="447" y="458"/>
      <point x="456" y="458" type="curve"/>
      <point x="258" y="98" type="line"/>
      <point x="255" y="93"/>
      <point x="252" y="88"/>
      <point x="250" y="83" type="curve"/>
      <point x="247" y="78"/>
      <point x="245" y="73"/>
      <point x="243" y="68" type="curve"/>
      <point x="242" y="73"/>
      <point x="242" y="78"/>
      <point x="241" y="83" type="curve" smooth="yes"/>
      <point x="240" y="88"/>
      <point x="238" y="93"/>
      <point x="237" y="98" type="curve"/>
      <point x="126" y="458" type="line"/>
      <point x="137" y="458"/>
      <point x="148" y="459"/>
      <point x="156" y="459" type="curve" smooth="yes"/>
      <point x="164" y="459"/>
      <point x="170" y="460"/>
      <point x="172" y="460" type="curve" smooth="yes"/>
      <point x="178" y="460" type="line"/>
      <point x="191" y="461"/>
      <point x="199" y="467"/>
      <point x="200" y="478" type="curve" smooth="yes"/>
      <point x="202" y="497" type="line"/>
      <point x="101" y="497" type="line"/>
      <point x="101" y="497" type="line"/>
      <point x="61" y="497" type="line"/>
      <point x="28" y="497" type="line"/>
      <point x="26" y="478" type="line" smooth="yes"/>
      <point x="25" y="467"/>
      <point x="30" y="461"/>
      <point x="43" y="460" type="curve"/>
      <point x="43" y="460"/>
      <point x="54" y="460"/>
      <point x="74" y="459" type="curve"/>
      <point x="213" y="18" type="line"/>
      <point x="102" y="-176" type="line"/>
      <point x="136" y="-176" type="line" smooth="yes"/>
      <point x="142" y="-176"/>
      <point x="146" y="-174"/>
      <point x="150" y="-171" type="curve" smooth="yes"/>
      <point x="154" y="-168"/>
      <point x="156" y="-165"/>
      <point x="159" y="-160" type="curve" smooth="yes"/>
      <point x="504" y="459" type="line"/>
      <point x="523" y="459" type="line" smooth="yes"/>
      <point x="529" y="459"/>
      <point x="532" y="460"/>
      <point x="534" y="460" type="curve" smooth="yes"/>
      <point x="539" y="460" type="line"/>
      <point x="552" y="461"/>
      <point x="560" y="467"/>
      <point x="561" y="478" type="curve" smooth="yes"/>
      <point x="563" y="497" type="line"/>
    </contour>
    <contour>
      <point x="446" y="716" type="line"/>
      <point x="399" y="716" type="line" smooth="yes"/>
      <point x="391" y="716"/>
      <point x="384" y="714"/>
      <point x="380" y="712" type="curve" smooth="yes"/>
      <point x="376" y="710"/>
      <point x="371" y="706"/>
      <point x="367" y="700" type="curve"/>
      <point x="274" y="581" type="line"/>
      <point x="303" y="581" type="line" smooth="yes"/>
      <point x="307" y="581"/>
      <point x="310" y="581"/>
      <point x="313" y="582" type="curve" smooth="yes"/>
      <point x="316" y="583"/>
      <point x="319" y="586"/>
      <point x="322" y="589" type="curve" smooth="yes"/>
    </contour>
  </outline>
</glyph>
<glyph name="ydieresis" format="1">
  <advance width="578"/>
  <unicode hex="00FF"/>
  <note>
    ydieresis
  </note>
  <outline>
    <contour>
      <point x="526" y="497" type="line"/>
      <point x="490" y="497" type="line"/>
      <point x="390" y="497" type="line"/>
      <point x="387" y="478" type="line"/>
      <point x="386" y="467"/>
      <point x="392" y="461"/>
      <point x="405" y="460" type="curve"/>
      <point x="410" y="460" type="line" smooth="yes"/>
      <point x="412" y="460"/>
      <point x="414" y="459"/>
      <point x="417" y="459" type="curve" smooth="yes"/>
      <point x="432" y="459" type="line" smooth="yes"/>
      <point x="439" y="459"/>
      <point x="447" y="458"/>
      <point x="456" y="458" type="curve"/>
      <point x="258" y="98" type="line"/>
      <point x="255" y="93"/>
      <point x="253" y="88"/>
      <point x="251" y="83" type="curve"/>
      <point x="248" y="78"/>
      <point x="246" y="73"/>
      <point x="244" y="68" type="curve"/>
      <point x="241" y="83" type="line"/>
      <point x="238" y="98" type="line"/>
      <point x="126" y="458" type="line"/>
      <point x="137" y="458"/>
      <point x="148" y="459"/>
      <point x="156" y="459" type="curve" smooth="yes"/>
      <point x="164" y="459"/>
      <point x="170" y="460"/>
      <point x="172" y="460" type="curve" smooth="yes"/>
      <point x="178" y="460" type="line"/>
      <point x="191" y="461"/>
      <point x="199" y="467"/>
      <point x="200" y="478" type="curve"/>
      <point x="203" y="497" type="line"/>
      <point x="102" y="497" type="line"/>
      <point x="101" y="497" type="line"/>
      <point x="62" y="497" type="line"/>
      <point x="29" y="497" type="line"/>
      <point x="26" y="478" type="line"/>
      <point x="25" y="467"/>
      <point x="31" y="461"/>
      <point x="44" y="460" type="curve"/>
      <point x="44" y="460"/>
      <point x="54" y="460"/>
      <point x="74" y="459" type="curve"/>
      <point x="214" y="18" type="line"/>
      <point x="102" y="-176" type="line"/>
      <point x="136" y="-176" type="line" smooth="yes"/>
      <point x="142" y="-176"/>
      <point x="146" y="-174"/>
      <point x="150" y="-171" type="curve" smooth="yes"/>
      <point x="154" y="-168"/>
      <point x="157" y="-165"/>
      <point x="160" y="-160" type="curve" smooth="yes"/>
      <point x="505" y="459" type="line"/>
      <point x="523" y="459" type="line" smooth="yes"/>
      <point x="529" y="459"/>
      <point x="532" y="460"/>
      <point x="534" y="460" type="curve" smooth="yes"/>
      <point x="539" y="460" type="line"/>
      <point x="552" y="461"/>
      <point x="560" y="467"/>
      <point x="561" y="478" type="curve"/>
      <point x="564" y="497" type="line"/>
    </contour>
    <contour>
      <point x="281" y="648"/>
      <point x="281" y="653"/>
      <point x="279" y="658" type="curve" smooth="yes"/>
      <point x="277" y="663"/>
      <point x="274" y="667"/>
      <point x="271" y="671" type="curve" smooth="yes"/>
      <point x="268" y="675"/>
      <point x="264" y="678"/>
      <point x="259" y="680" type="curve" smooth="yes"/>
      <point x="254" y="682"/>
      <point x="249" y="684"/>
      <point x="244" y="684" type="curve" smooth="yes"/>
      <point x="239" y="684"/>
      <point x="233" y="682"/>
      <point x="228" y="680" type="curve" smooth="yes"/>
      <point x="223" y="678"/>
      <point x="218" y="675"/>
      <point x="214" y="671" type="curve" smooth="yes"/>
      <point x="210" y="667"/>
      <point x="206" y="663"/>
      <point x="203" y="658" type="curve" smooth="yes"/>
      <point x="200" y="653"/>
      <point x="199" y="648"/>
      <point x="198" y="642" type="curve" smooth="yes"/>
      <point x="197" y="637"/>
      <point x="197" y="632"/>
      <point x="199" y="627" type="curve" smooth="yes"/>
      <point x="201" y="622"/>
      <point x="204" y="618"/>
      <point x="207" y="614" type="curve" smooth="yes"/>
      <point x="210" y="610"/>
      <point x="214" y="607"/>
      <point x="219" y="605" type="curve" smooth="yes"/>
      <point x="224" y="603"/>
      <point x="229" y="602"/>
      <point x="234" y="602" type="curve" smooth="yes"/>
      <point x="239" y="602"/>
      <point x="245" y="603"/>
      <point x="250" y="605" type="curve" smooth="yes"/>
      <point x="255" y="607"/>
      <point x="260" y="610"/>
      <point x="264" y="614" type="curve" smooth="yes"/>
      <point x="268" y="618"/>
      <point x="272" y="622"/>
      <point x="275" y="627" type="curve" smooth="yes"/>
      <point x="278" y="632"/>
      <point x="279" y="637"/>
      <point x="280" y="642" type="curve" smooth="yes"/>
    </contour>
    <contour>
      <point x="453" y="648"/>
      <point x="452" y="653"/>
      <point x="450" y="658" type="curve" smooth="yes"/>
      <point x="448" y="663"/>
      <point x="446" y="667"/>
      <point x="443" y="671" type="curve" smooth="yes"/>
      <point x="440" y="675"/>
      <point x="436" y="678"/>
      <point x="431" y="680" type="curve" smooth="yes"/>
      <point x="426" y="682"/>
      <point x="420" y="684"/>
      <point x="415" y="684" type="curve" smooth="yes"/>
      <point x="409" y="684"/>
      <point x="404" y="682"/>
      <point x="399" y="680" type="curve" smooth="yes"/>
      <point x="394" y="678"/>
      <point x="389" y="675"/>
      <point x="385" y="671" type="curve" smooth="yes"/>
      <point x="381" y="667"/>
      <point x="377" y="663"/>
      <point x="374" y="658" type="curve" smooth="yes"/>
      <point x="371" y="653"/>
      <point x="370" y="648"/>
      <point x="369" y="642" type="curve" smooth="yes"/>
      <point x="368" y="637"/>
      <point x="368" y="632"/>
      <point x="370" y="627" type="curve" smooth="yes"/>
      <point x="372" y="622"/>
      <point x="375" y="618"/>
      <point x="378" y="614" type="curve" smooth="yes"/>
      <point x="381" y="610"/>
      <point x="385" y="607"/>
      <point x="390" y="605" type="curve" smooth="yes"/>
      <point x="395" y="603"/>
      <point x="399" y="602"/>
      <point x="405" y="602" type="curve" smooth="yes"/>
      <point x="410" y="602"/>
      <point x="416" y="603"/>
      <point x="421" y="605" type="curve" smooth="yes"/>
      <point x="426" y="607"/>
      <point x="432" y="610"/>
      <point x="436" y="614" type="curve" smooth="yes"/>
      <point x="440" y="618"/>
      <point x="443" y="622"/>
      <point x="446" y="627" type="curve" smooth="yes"/>
      <point x="449" y="632"/>
      <point x="451" y="637"/>
      <point x="452" y="642" type="curve" smooth="yes"/>
    </contour>
  </outline>
</glyph>
<glyph name="eogonek" format="1">
  <advance width="434"/>
  <unicode hex="0119"/>
  <note>
    eogonek
  </note>
  <outline>
    <contour>
      <point x="119" y="236"/>
      <point x="159" y="241"/>
      <point x="194" y="248" type="curve" smooth="yes"/>
      <point x="229" y="255"/>
      <point x="258" y="262"/>
      <point x="283" y="270" type="curve" smooth="yes"/>
      <point x="308" y="278"/>
      <point x="329" y="287"/>
      <point x="345" y="297" type="curve" smooth="yes"/>
      <point x="361" y="307"/>
      <point x="374" y="317"/>
      <point x="383" y="328" type="curve" smooth="yes"/>
      <point x="392" y="339"/>
      <point x="398" y="351"/>
      <point x="402" y="363" type="curve" smooth="yes"/>
      <point x="406" y="375"/>
      <point x="408" y="388"/>
      <point x="408" y="402" type="curve" smooth="yes"/>
      <point x="408" y="412"/>
      <point x="406" y="424"/>
      <point x="401" y="436" type="curve" smooth="yes"/>
      <point x="396" y="448"/>
      <point x="388" y="459"/>
      <point x="378" y="469" type="curve"/>
      <point x="367" y="479"/>
      <point x="354" y="487"/>
      <point x="337" y="494" type="curve" smooth="yes"/>
      <point x="320" y="501"/>
      <point x="300" y="504"/>
      <point x="276" y="504" type="curve" smooth="yes"/>
      <point x="250" y="504"/>
      <point x="225" y="500"/>
      <point x="202" y="491" type="curve" smooth="yes"/>
      <point x="179" y="482"/>
      <point x="159" y="471"/>
      <point x="140" y="456" type="curve" smooth="yes"/>
      <point x="121" y="441"/>
      <point x="104" y="423"/>
      <point x="90" y="403" type="curve" smooth="yes"/>
      <point x="76" y="383"/>
      <point x="64" y="360"/>
      <point x="54" y="337" type="curve" smooth="yes"/>
      <point x="44" y="314"/>
      <point x="37" y="289"/>
      <point x="32" y="264" type="curve" smooth="yes"/>
      <point x="27" y="239"/>
      <point x="24" y="214"/>
      <point x="24" y="189" type="curve" smooth="yes"/>
      <point x="24" y="159"/>
      <point x="27" y="132"/>
      <point x="35" y="108" type="curve" smooth="yes"/>
      <point x="43" y="84"/>
      <point x="54" y="63"/>
      <point x="69" y="46" type="curve" smooth="yes"/>
      <point x="84" y="29"/>
      <point x="102" y="16"/>
      <point x="123" y="7" type="curve" smooth="yes"/>
      <point x="144" y="-2"/>
      <point x="169" y="-6"/>
      <point x="197" y="-6" type="curve" smooth="yes"/>
      <point x="203" y="-6" type="line"/>
      <point x="208" y="-6" type="line"/>
      <point x="199" y="-12"/>
      <point x="192" y="-19"/>
      <point x="184" y="-26" type="curve"/>
      <point x="176" y="-34"/>
      <point x="169" y="-41"/>
      <point x="163" y="-50" type="curve" smooth="yes"/>
      <point x="157" y="-59"/>
      <point x="152" y="-67"/>
      <point x="148" y="-77" type="curve"/>
      <point x="144" y="-86"/>
      <point x="143" y="-97"/>
      <point x="143" y="-107" type="curve" smooth="yes"/>
      <point x="143" y="-126"/>
      <point x="150" y="-141"/>
      <point x="162" y="-152" type="curve" smooth="yes"/>
      <point x="174" y="-163"/>
      <point x="191" y="-169"/>
      <point x="213" y="-169" type="curve" smooth="yes"/>
      <point x="227" y="-169"/>
      <point x="242" y="-167"/>
      <point x="255" y="-162" type="curve" smooth="yes"/>
      <point x="269" y="-157"/>
      <point x="280" y="-151"/>
      <point x="289" y="-143" type="curve"/>
      <point x="284" y="-126" type="line"/>
      <point x="283" y="-123"/>
      <point x="281" y="-123"/>
      <point x="278" y="-123" type="curve" smooth="yes"/>
      <point x="276" y="-123"/>
      <point x="274" y="-123"/>
      <point x="272" y="-125" type="curve" smooth="yes"/>
      <point x="270" y="-127"/>
      <point x="267" y="-129"/>
      <point x="263" y="-131" type="curve" smooth="yes"/>
      <point x="259" y="-133"/>
      <point x="253" y="-135"/>
      <point x="247" y="-137" type="curve" smooth="yes"/>
      <point x="241" y="-139"/>
      <point x="234" y="-140"/>
      <point x="225" y="-140" type="curve" smooth="yes"/>
      <point x="211" y="-140"/>
      <point x="200" y="-136"/>
      <point x="192" y="-128" type="curve" smooth="yes"/>
      <point x="184" y="-120"/>
      <point x="179" y="-109"/>
      <point x="179" y="-95" type="curve" smooth="yes"/>
      <point x="179" y="-84"/>
      <point x="181" y="-73"/>
      <point x="186" y="-63" type="curve" smooth="yes"/>
      <point x="191" y="-53"/>
      <point x="198" y="-44"/>
      <point x="205" y="-36" type="curve" smooth="yes"/>
      <point x="212" y="-28"/>
      <point x="220" y="-21"/>
      <point x="228" y="-15" type="curve" smooth="yes"/>
      <point x="236" y="-9"/>
      <point x="243" y="-5"/>
      <point x="250" y="-1" type="curve"/>
      <point x="253" y="0"/>
      <point x="256" y="0"/>
      <point x="259" y="1" type="curve"/>
      <point x="275" y="5"/>
      <point x="290" y="12"/>
      <point x="305" y="20" type="curve" smooth="yes"/>
      <point x="320" y="28"/>
      <point x="335" y="38"/>
      <point x="350" y="50" type="curve" smooth="yes"/>
      <point x="365" y="62"/>
      <point x="379" y="76"/>
      <point x="395" y="92" type="curve"/>
      <point x="384" y="105" type="line"/>
      <point x="381" y="108"/>
      <point x="378" y="110"/>
      <point x="374" y="110" type="curve" smooth="yes"/>
      <point x="370" y="110"/>
      <point x="366" y="109"/>
      <point x="361" y="105" type="curve" smooth="yes"/>
      <point x="356" y="101"/>
      <point x="350" y="96"/>
      <point x="343" y="90" type="curve" smooth="yes"/>
      <point x="336" y="84"/>
      <point x="329" y="78"/>
      <point x="321" y="71" type="curve" smooth="yes"/>
      <point x="313" y="64"/>
      <point x="302" y="58"/>
      <point x="291" y="52" type="curve" smooth="yes"/>
      <point x="280" y="46"/>
      <point x="267" y="41"/>
      <point x="253" y="37" type="curve" smooth="yes"/>
      <point x="239" y="33"/>
      <point x="224" y="31"/>
      <point x="206" y="31" type="curve" smooth="yes"/>
      <point x="161" y="31"/>
      <point x="126" y="45"/>
      <point x="104" y="73" type="curve" smooth="yes"/>
      <point x="82" y="101"/>
      <point x="70" y="140"/>
      <point x="70" y="190" type="curve" smooth="yes"/>
      <point x="70" y="197"/>
      <point x="71" y="203"/>
      <point x="71" y="210" type="curve" smooth="yes"/>
      <point x="71" y="217"/>
      <point x="71" y="224"/>
      <point x="72" y="231" type="curve"/>
    </contour>
    <contour>
      <point x="113" y="367"/>
      <point x="128" y="388"/>
      <point x="144" y="407" type="curve" smooth="yes"/>
      <point x="161" y="426"/>
      <point x="180" y="441"/>
      <point x="201" y="452" type="curve" smooth="yes"/>
      <point x="222" y="463"/>
      <point x="246" y="469"/>
      <point x="273" y="469" type="curve" smooth="yes"/>
      <point x="290" y="469"/>
      <point x="305" y="468"/>
      <point x="317" y="463" type="curve"/>
      <point x="329" y="459"/>
      <point x="338" y="453"/>
      <point x="345" y="446" type="curve" smooth="yes"/>
      <point x="352" y="439"/>
      <point x="358" y="432"/>
      <point x="361" y="424" type="curve" smooth="yes"/>
      <point x="364" y="416"/>
      <point x="366" y="408"/>
      <point x="366" y="401" type="curve" smooth="yes"/>
      <point x="366" y="391"/>
      <point x="364" y="382"/>
      <point x="362" y="373" type="curve" smooth="yes"/>
      <point x="360" y="364"/>
      <point x="354" y="356"/>
      <point x="347" y="347" type="curve"/>
      <point x="340" y="339"/>
      <point x="330" y="330"/>
      <point x="317" y="322" type="curve" smooth="yes"/>
      <point x="304" y="314"/>
      <point x="286" y="307"/>
      <point x="265" y="300" type="curve" smooth="yes"/>
      <point x="244" y="293"/>
      <point x="218" y="286"/>
      <point x="187" y="280" type="curve" smooth="yes"/>
      <point x="156" y="274"/>
      <point x="119" y="269"/>
      <point x="77" y="264" type="curve"/>
      <point x="82" y="291"/>
      <point x="91" y="317"/>
      <point x="102" y="342" type="curve" smooth="yes"/>
    </contour>
  </outline>
</glyph>
<glyph name="dotlessi" format="1">
  <advance width="203"/>
  <unicode hex="0131"/>
  <note>
    dotlessi
  </note>
  <outline>
    <contour>
      <point x="102" y="40" type="line"/>
      <point x="158" y="498" type="line"/>
      <point x="38" y="498" type="line"/>
      <point x="36" y="478" type="line" smooth="yes"/>
      <point x="35" y="467"/>
      <point x="40" y="461"/>
      <point x="53" y="460" type="curve"/>
      <point x="106" y="458" type="line"/>
      <point x="49" y="0" type="line"/>
      <point x="169" y="0" type="line"/>
      <point x="171" y="20" type="line" smooth="yes"/>
      <point x="172" y="31"/>
      <point x="167" y="37"/>
      <point x="154" y="38" type="curve"/>
    </contour>
  </outline>
</glyph>
<glyph name="Lslash" format="1">
  <advance width="558"/>
  <unicode hex="0141"/>
  <note>
    Lslash
  </note>
  <outline>
    <contour>
      <point x="480" y="132"/>
      <point x="470" y="129"/>
      <point x="466" y="108" type="curve"/>
      <point x="453" y="44" type="line"/>
      <point x="160" y="44" type="line"/>
      <point x="193" y="317" type="line"/>
      <point x="405" y="423" type="line" smooth="yes"/>
      <point x="414" y="427"/>
      <point x="416" y="431"/>
      <point x="417" y="438" type="curve"/>
      <point x="421" y="470" type="line"/>
      <point x="199" y="361" type="line"/>
      <point x="237" y="668" type="line"/>
      <point x="301" y="670" type="line"/>
      <point x="314" y="671"/>
      <point x="322" y="677"/>
      <point x="323" y="688" type="curve"/>
      <point x="326" y="708" type="line"/>
      <point x="106" y="708" type="line"/>
      <point x="104" y="688" type="line" smooth="yes"/>
      <point x="103" y="677"/>
      <point x="109" y="671"/>
      <point x="122" y="670" type="curve"/>
      <point x="186" y="668" type="line"/>
      <point x="145" y="337" type="line"/>
      <point x="51" y="291" type="line" smooth="yes"/>
      <point x="45" y="288"/>
      <point x="41" y="282"/>
      <point x="40" y="276" type="curve"/>
      <point x="36" y="243" type="line"/>
      <point x="140" y="294" type="line"/>
      <point x="108" y="40" type="line"/>
      <point x="44" y="38" type="line"/>
      <point x="31" y="37"/>
      <point x="23" y="31"/>
      <point x="22" y="20" type="curve" smooth="yes"/>
      <point x="20" y="0" type="line"/>
      <point x="499" y="0" type="line"/>
      <point x="515" y="132" type="line"/>
      <point x="495" y="132" type="line"/>
    </contour>
  </outline>
</glyph>
<glyph name="Eng" format="1">
  <advance width="827"/>
  <unicode hex="014A"/>
  <outline>
    <contour>
      <point x="684" y="669" type="line"/>
      <point x="594" y="-63" type="line" smooth="yes"/>
      <point x="588" y="-113"/>
      <point x="558" y="-148"/>
      <point x="502" y="-148" type="curve" smooth="yes"/>
      <point x="494" y="-148"/>
      <point x="487" y="-147"/>
      <point x="482" y="-146" type="curve" smooth="yes"/>
      <point x="477" y="-145"/>
      <point x="465" y="-140"/>
      <point x="463" y="-150" type="curve"/>
      <point x="458" y="-174" type="line"/>
      <point x="471" y="-181"/>
      <point x="488" y="-184"/>
      <point x="505" y="-184" type="curve" smooth="yes"/>
      <point x="581" y="-184"/>
      <point x="630" y="-138"/>
      <point x="639" y="-63" type="curve" smooth="yes"/>
      <point x="729" y="669" type="line"/>
    </contour>
    <component base="N"/>
  </outline>
</glyph>
<glyph name="zdotaccent" format="1">
  <advance width="475"/>
  <unicode hex="017C"/>
  <note>
    zdotaccent
  </note>
  <outline>
    <contour>
      <point x="392" y="125" type="line" smooth="yes"/>
      <point x="378" y="125"/>
      <point x="371" y="117"/>
      <point x="368" y="101" type="curve"/>
      <point x="368" y="100"/>
      <point x="366" y="97"/>
      <point x="365" y="91" type="curve" smooth="yes"/>
      <point x="364" y="85"/>
      <point x="362" y="78"/>
      <point x="360" y="68" type="curve" smooth="yes"/>
      <point x="358" y="58"/>
      <point x="356" y="48"/>
      <point x="354" y="37" type="curve"/>
      <point x="82" y="37" type="line"/>
      <point x="445" y="458" type="line" smooth="yes"/>
      <point x="450" y="464"/>
      <point x="453" y="470"/>
      <point x="454" y="477" type="curve" smooth="yes"/>
      <point x="457" y="497" type="line"/>
      <point x="97" y="497" type="line"/>
      <point x="96" y="493" type="line"/>
      <point x="81" y="368" type="line"/>
      <point x="105" y="368" type="line" smooth="yes"/>
      <point x="119" y="368"/>
      <point x="127" y="376"/>
      <point x="130" y="392" type="curve"/>
      <point x="130" y="393"/>
      <point x="131" y="397"/>
      <point x="132" y="403" type="curve" smooth="yes"/>
      <point x="133" y="409"/>
      <point x="136" y="417"/>
      <point x="138" y="427" type="curve" smooth="yes"/>
      <point x="140" y="437"/>
      <point x="142" y="449"/>
      <point x="144" y="460" type="curve"/>
      <point x="396" y="460" type="line"/>
      <point x="32" y="37" type="line" smooth="yes"/>
      <point x="26" y="30"/>
      <point x="23" y="25"/>
      <point x="22" y="19" type="curve"/>
      <point x="20" y="0" type="line"/>
      <point x="375" y="0" type="line"/>
      <point x="383" y="0" type="line"/>
      <point x="401" y="0" type="line"/>
      <point x="416" y="125" type="line"/>
      <point x="397" y="125" type="line"/>
    </contour>
    <contour>
      <point x="347" y="681"/>
      <point x="347" y="686"/>
      <point x="345" y="692" type="curve" smooth="yes"/>
      <point x="343" y="698"/>
      <point x="341" y="703"/>
      <point x="337" y="707" type="curve" smooth="yes"/>
      <point x="333" y="711"/>
      <point x="329" y="714"/>
      <point x="324" y="716" type="curve" smooth="yes"/>
      <point x="319" y="718"/>
      <point x="313" y="720"/>
      <point x="307" y="720" type="curve" smooth="yes"/>
      <point x="301" y="720"/>
      <point x="296" y="718"/>
      <point x="290" y="716" type="curve" smooth="yes"/>
      <point x="284" y="714"/>
      <point x="279" y="711"/>
      <point x="275" y="707" type="curve" smooth="yes"/>
      <point x="271" y="703"/>
      <point x="266" y="698"/>
      <point x="263" y="692" type="curve" smooth="yes"/>
      <point x="260" y="686"/>
      <point x="259" y="681"/>
      <point x="258" y="675" type="curve" smooth="yes"/>
      <point x="257" y="669"/>
      <point x="257" y="663"/>
      <point x="259" y="658" type="curve" smooth="yes"/>
      <point x="261" y="653"/>
      <point x="263" y="649"/>
      <point x="267" y="645" type="curve" smooth="yes"/>
      <point x="271" y="641"/>
      <point x="275" y="637"/>
      <point x="280" y="635" type="curve" smooth="yes"/>
      <point x="285" y="633"/>
      <point x="291" y="632"/>
      <point x="297" y="632" type="curve" smooth="yes"/>
      <point x="303" y="632"/>
      <point x="308" y="633"/>
      <point x="314" y="635" type="curve" smooth="yes"/>
      <point x="320" y="637"/>
      <point x="325" y="641"/>
      <point x="329" y="645" type="curve" smooth="yes"/>
      <point x="333" y="649"/>
      <point x="338" y="653"/>
      <point x="341" y="658" type="curve" smooth="yes"/>
      <point x="344" y="663"/>
      <point x="345" y="669"/>
      <point x="346" y="675" type="curve" smooth="yes"/>
    </contour>
  </outline>
</glyph>
<glyph name="circumflex" format="1">
  <advance width="365"/>
  <unicode hex="02C6"/>
  <note>
    circumflex
  </note>
  <outline>
    <contour>
      <point x="354" y="584" type="line"/>
      <point x="261" y="708" type="line"/>
      <point x="218" y="708" type="line"/>
      <point x="94" y="584" type="line"/>
      <point x="127" y="584" type="line" smooth="yes"/>
      <point x="130" y="584"/>
      <point x="133" y="585"/>
      <point x="135" y="586" type="curve" smooth="yes"/>
      <point x="137" y="587"/>
      <point x="140" y="588"/>
      <point x="142" y="590" type="curve"/>
      <point x="230" y="672" type="line"/>
      <point x="231" y="673"/>
      <point x="232" y="673"/>
      <point x="233" y="674" type="curve" smooth="yes"/>
      <point x="234" y="675"/>
      <point x="235" y="677"/>
      <point x="236" y="678" type="curve"/>
      <point x="237" y="676"/>
      <point x="239" y="673"/>
      <point x="241" y="672" type="curve"/>
      <point x="309" y="590" type="line"/>
      <point x="312" y="586"/>
      <point x="316" y="584"/>
      <point x="321" y="584" type="curve" smooth="yes"/>
    </contour>
  </outline>
</glyph>
<glyph name="brevecomb" format="1">
  <advance width="365"/>
  <unicode hex="0306"/>
  <outline>
    <component base="breve"/>
    <contour>
      <point x="246" y="708" type="move" name="top"/>
    </contour>
    <contour>
      <point x="220" y="498" type="move" name="_top"/>
    </contour>
  </outline>
</glyph>
<glyph name="dotaccentcomb" format="1">
  <advance width="215"/>
  <unicode hex="0307"/>
  <outline>
    <component base="dotaccent"/>
    <contour>
      <point x="164" y="720" type="move" name="top"/>
    </contour>
    <contour>
      <point x="137" y="498" type="move" name="_top"/>
    </contour>
  </outline>
</glyph>
<glyph name="commaturnedabovecomb" format="1">
  <advance width="226"/>
  <unicode hex="0312"/>
  <outline>
    <component base="comma" xOffset="260" yOffset="668" xScale="-1" yScale="-1"/>
    <contour>
      <point x="167" y="794" type="move" name="top"/>
    </contour>
    <contour>
      <point x="131" y="498" type="move" name="_top"/>
    </contour>
  </outline>
</glyph>
<glyph name="cedillacomb" format="1">
  <advance width="285"/>
  <unicode hex="0327"/>
  <outline>
    <component base="cedilla" xOffset="-1"/>
    <contour>
      <point x="105" y="0" type="move" name="_bottom"/>
    </contour>
    <contour>
      <point x="83" y="-177" type="move" name="bottom"/>
    </contour>
  </outline>
</glyph>
<glyph name="ogonekcomb" format="1">
  <advance width="276"/>
  <unicode hex="0328"/>
  <note>
    ogonek
  </note>
  <outline>
    <contour>
      <point x="197" y="-122"/>
      <point x="193" y="-125" type="curve" smooth="yes"/>
      <point x="180" y="-134"/>
      <point x="161" y="-138"/>
      <point x="143" y="-138" type="curve" smooth="yes"/>
      <point x="112" y="-138"/>
      <point x="88" y="-124"/>
      <point x="92" y="-88" type="curve" smooth="yes"/>
      <point x="96" y="-51"/>
      <point x="130" y="-22"/>
      <point x="169" y="0" type="curve"/>
      <point x="146" y="6" type="line"/>
      <point x="103" y="-20"/>
      <point x="58" y="-53"/>
      <point x="54" y="-98" type="curve"/>
      <point x="48" y="-144"/>
      <point x="82" y="-169"/>
      <point x="130" y="-169" type="curve" smooth="yes"/>
      <point x="159" y="-169"/>
      <point x="191" y="-159"/>
      <point x="213" y="-142" type="curve"/>
      <point x="206" y="-127" type="line"/>
      <point x="203" y="-122"/>
    </contour>
    <contour>
      <point x="199" y="10" type="move" name="_ogonek"/>
    </contour>
  </outline>
</glyph>
<glyph name="endash" format="1">
  <advance width="521"/>
  <unicode hex="2013"/>
  <note>
    endash
  </note>
  <outline>
    <contour>
      <point x="67" y="307" type="line"/>
      <point x="63" y="272" type="line"/>
      <point x="456" y="272" type="line"/>
      <point x="461" y="307" type="line"/>
    </contour>
  </outline>
</glyph>
<glyph name="quotedblleft" format="1">
  <advance width="340"/>
  <unicode hex="201C"/>
  <note>
    quotedblleft
  </note>
  <outline>
    <contour>
      <point x="242" y="541" type="line" smooth="yes"/>
      <point x="250" y="544"/>
      <point x="253" y="551"/>
      <point x="250" y="559" type="curve"/>
      <point x="241" y="579"/>
      <point x="237" y="600"/>
      <point x="239" y="619" type="curve" smooth="yes"/>
      <point x="243" y="653"/>
      <point x="268" y="690"/>
      <point x="296" y="722" type="curve"/>
      <point x="301" y="728"/>
      <point x="300" y="735"/>
      <point x="295" y="738" type="curve"/>
      <point x="284" y="745" type="line"/>
      <point x="244" y="710"/>
      <point x="205" y="659"/>
      <point x="199" y="604" type="curve"/>
      <point x="195" y="580"/>
      <point x="200" y="551"/>
      <point x="210" y="529" type="curve"/>
    </contour>
    <contour>
      <point x="108" y="541" type="line" smooth="yes"/>
      <point x="116" y="544"/>
      <point x="119" y="551"/>
      <point x="116" y="559" type="curve"/>
      <point x="107" y="579"/>
      <point x="103" y="600"/>
      <point x="105" y="619" type="curve" smooth="yes"/>
      <point x="109" y="653"/>
      <point x="134" y="690"/>
      <point x="162" y="722" type="curve"/>
      <point x="167" y="728"/>
      <point x="166" y="735"/>
      <point x="161" y="738" type="curve"/>
      <point x="150" y="745" type="line"/>
      <point x="110" y="710"/>
      <point x="71" y="659"/>
      <point x="65" y="604" type="curve"/>
      <point x="61" y="580"/>
      <point x="66" y="551"/>
      <point x="76" y="529" type="curve"/>
    </contour>
  </outline>
</glyph>
<glyph name="perthousand" format="1">
  <advance width="1087"/>
  <unicode hex="2030"/>
  <note>
    perthousand
  </note>
  <outline>
    <contour>
      <point x="362" y="637"/>
      <point x="316" y="716"/>
      <point x="221" y="716" type="curve" smooth="yes"/>
      <point x="128" y="716"/>
      <point x="66" y="644"/>
      <point x="51" y="538" type="curve" smooth="yes"/>
      <point x="38" y="443"/>
      <point x="79" y="361"/>
      <point x="178" y="361" type="curve" smooth="yes"/>
      <point x="270" y="361"/>
      <point x="333" y="432"/>
      <point x="348" y="538" type="curve" smooth="yes"/>
    </contour>
    <contour>
      <point x="300" y="453"/>
      <point x="257" y="393"/>
      <point x="182" y="393" type="curve" smooth="yes"/>
      <point x="104" y="393"/>
      <point x="80" y="458"/>
      <point x="89" y="538" type="curve" smooth="yes"/>
      <point x="98" y="620"/>
      <point x="143" y="683"/>
      <point x="217" y="683" type="curve" smooth="yes"/>
      <point x="291" y="683"/>
      <point x="320" y="627"/>
      <point x="310" y="538" type="curve" smooth="yes"/>
    </contour>
    <contour>
      <point x="44" y="0" type="line"/>
      <point x="78" y="0" type="line" smooth="yes"/>
      <point x="85" y="0"/>
      <point x="91" y="3"/>
      <point x="96" y="9" type="curve" smooth="yes"/>
      <point x="690" y="708" type="line"/>
      <point x="656" y="708" type="line" smooth="yes"/>
      <point x="649" y="708"/>
      <point x="640" y="703"/>
      <point x="637" y="698" type="curve"/>
    </contour>
    <contour>
      <point x="699" y="269"/>
      <point x="654" y="346"/>
      <point x="558" y="346" type="curve" smooth="yes"/>
      <point x="464" y="346"/>
      <point x="403" y="276"/>
      <point x="388" y="168" type="curve" smooth="yes"/>
      <point x="375" y="73"/>
      <point x="416" y="-8"/>
      <point x="515" y="-8" type="curve" smooth="yes"/>
      <point x="608" y="-8"/>
      <point x="670" y="62"/>
      <point x="685" y="168" type="curve" smooth="yes"/>
    </contour>
    <contour>
      <point x="638" y="92"/>
      <point x="597" y="24"/>
      <point x="519" y="24" type="curve" smooth="yes"/>
      <point x="442" y="24"/>
      <point x="416" y="87"/>
      <point x="426" y="168" type="curve" smooth="yes"/>
      <point x="435" y="248"/>
      <point x="476" y="314"/>
      <point x="555" y="314" type="curve" smooth="yes"/>
      <point x="628" y="314"/>
      <point x="657" y="257"/>
      <point x="647" y="168" type="curve" smooth="yes"/>
    </contour>
    <contour>
      <point x="1061" y="269"/>
      <point x="1016" y="346"/>
      <point x="920" y="346" type="curve" smooth="yes"/>
      <point x="826" y="346"/>
      <point x="765" y="276"/>
      <point x="750" y="168" type="curve" smooth="yes"/>
      <point x="737" y="73"/>
      <point x="778" y="-8"/>
      <point x="877" y="-8" type="curve" smooth="yes"/>
      <point x="970" y="-8"/>
      <point x="1032" y="62"/>
      <point x="1047" y="168" type="curve" smooth="yes"/>
    </contour>
    <contour>
      <point x="1000" y="92"/>
      <point x="959" y="24"/>
      <point x="881" y="24" type="curve" smooth="yes"/>
      <point x="804" y="24"/>
      <point x="778" y="87"/>
      <point x="788" y="168" type="curve" smooth="yes"/>
      <point x="797" y="248"/>
      <point x="838" y="314"/>
      <point x="917" y="314" type="curve" smooth="yes"/>
      <point x="990" y="314"/>
      <point x="1019" y="257"/>
      <point x="1009" y="168" type="curve" smooth="yes"/>
    </contour>
  </outline>
</glyph>
<glyph name="guilsinglright" format="1">
  <advance width="249"/>
  <unicode hex="203A"/>
  <note>
    guilsinglright
  </note>
  <outline>
    <contour>
      <point x="204" y="263" type="line"/>
      <point x="107" y="452" type="line"/>
      <point x="91" y="445" type="line"/>
      <point x="81" y="440"/>
      <point x="79" y="430"/>
      <point x="83" y="421" type="curve" smooth="yes"/>
      <point x="157" y="273" type="line"/>
      <point x="160" y="266"/>
      <point x="163" y="262"/>
      <point x="166" y="259" type="curve"/>
      <point x="163" y="256"/>
      <point x="158" y="252"/>
      <point x="153" y="245" type="curve" smooth="yes"/>
      <point x="44" y="99" type="line" smooth="yes"/>
      <point x="39" y="93"/>
      <point x="35" y="81"/>
      <point x="45" y="75" type="curve" smooth="yes"/>
      <point x="59" y="67" type="line"/>
      <point x="203" y="256" type="line"/>
    </contour>
  </outline>
</glyph>
<glyph name="Euro" format="1">
  <advance width="638"/>
  <unicode hex="20AC"/>
  <note>
    Euro
  </note>
  <outline>
    <contour>
      <point x="48" y="432" type="line"/>
      <point x="44" y="402" type="line"/>
      <point x="123" y="402" type="line"/>
      <point x="120" y="390"/>
      <point x="112" y="335"/>
      <point x="112" y="314" type="curve"/>
      <point x="33" y="314" type="line"/>
      <point x="30" y="284" type="line"/>
      <point x="110" y="284" type="line"/>
      <point x="106" y="116"/>
      <point x="179" y="-8"/>
      <point x="340" y="-8" type="curve" smooth="yes"/>
      <point x="431" y="-8"/>
      <point x="496" y="28"/>
      <point x="558" y="94" type="curve"/>
      <point x="542" y="112" type="line"/>
      <point x="535" y="119"/>
      <point x="529" y="116"/>
      <point x="521" y="110" type="curve" smooth="yes"/>
      <point x="453" y="56"/>
      <point x="429" y="34"/>
      <point x="347" y="34" type="curve" smooth="yes"/>
      <point x="214" y="34"/>
      <point x="156" y="139"/>
      <point x="160" y="285" type="curve"/>
      <point x="400" y="285" type="line" smooth="yes"/>
      <point x="409" y="285"/>
      <point x="417" y="291"/>
      <point x="417" y="299" type="curve"/>
      <point x="419" y="314" type="line"/>
      <point x="161" y="314" type="line"/>
      <point x="161" y="333"/>
      <point x="167" y="369"/>
      <point x="172" y="403" type="curve"/>
      <point x="460" y="403" type="line" smooth="yes"/>
      <point x="471" y="403"/>
      <point x="478" y="409"/>
      <point x="478" y="417" type="curve"/>
      <point x="480" y="432" type="line"/>
      <point x="179" y="432" type="line"/>
      <point x="214" y="572"/>
      <point x="296" y="673"/>
      <point x="429" y="673" type="curve" smooth="yes"/>
      <point x="488" y="673"/>
      <point x="541" y="649"/>
      <point x="575" y="609" type="curve" smooth="yes"/>
      <point x="580" y="603"/>
      <point x="589" y="603"/>
      <point x="596" y="610" type="curve" smooth="yes"/>
      <point x="614" y="627" type="line"/>
      <point x="567" y="687"/>
      <point x="515" y="714"/>
      <point x="432" y="714" type="curve" smooth="yes"/>
      <point x="274" y="714"/>
      <point x="170" y="594"/>
      <point x="130" y="432" type="curve"/>
    </contour>
  </outline>
</glyph>
<glyph name="trademark" format="1">
  <advance width="702"/>
  <unicode hex="2122"/>
  <note>
    trademark
  </note>
  <outline>
    <contour>
      <point x="477" y="520" type="line"/>
      <point x="390" y="702" type="line"/>
      <point x="390" y="702"/>
      <point x="387" y="708"/>
      <point x="378" y="708" type="curve" smooth="yes"/>
      <point x="350" y="708" type="line"/>
      <point x="314" y="420" type="line"/>
      <point x="346" y="420" type="line"/>
      <point x="373" y="642" type="line"/>
      <point x="373" y="662" type="line"/>
      <point x="461" y="474" type="line"/>
      <point x="463" y="469"/>
      <point x="467" y="466"/>
      <point x="473" y="466" type="curve" smooth="yes"/>
      <point x="478" y="466" type="line" smooth="yes"/>
      <point x="484" y="466"/>
      <point x="489" y="469"/>
      <point x="492" y="474" type="curve"/>
      <point x="625" y="664" type="line"/>
      <point x="620" y="642" type="line"/>
      <point x="592" y="420" type="line"/>
      <point x="623" y="420" type="line"/>
      <point x="659" y="708" type="line"/>
      <point x="630" y="708" type="line" smooth="yes"/>
      <point x="626" y="708"/>
      <point x="620" y="707"/>
      <point x="617" y="702" type="curve" smooth="yes"/>
      <point x="489" y="520" type="line"/>
      <point x="480" y="505" type="line"/>
    </contour>
    <contour>
      <point x="287" y="707" type="line"/>
      <point x="52" y="707" type="line"/>
      <point x="48" y="678" type="line"/>
      <point x="148" y="678" type="line"/>
      <point x="117" y="420" type="line"/>
      <point x="152" y="420" type="line"/>
      <point x="184" y="678" type="line"/>
      <point x="284" y="678" type="line"/>
    </contour>
  </outline>
</glyph>
<glyph name="minus" format="1">
  <advance width="549"/>
  <unicode hex="2212"/>
  <note>
    minus
  </note>
  <outline>
    <contour>
      <point x="71" y="354" type="line"/>
      <point x="67" y="317" type="line"/>
      <point x="482" y="317" type="line"/>
      <point x="486" y="354" type="line"/>
    </contour>
  </outline>
</glyph>
<glyph name="approxequal" format="1">
  <advance width="501"/>
  <unicode hex="2248"/>
  <note>
    approxequal
  </note>
  <outline>
    <contour>
      <point x="304" y="405"/>
      <point x="239" y="463"/>
      <point x="172" y="463" type="curve" smooth="yes"/>
      <point x="135" y="463"/>
      <point x="98" y="449"/>
      <point x="71" y="416" type="curve"/>
      <point x="78" y="388" type="line"/>
      <point x="93" y="407"/>
      <point x="130" y="426"/>
      <point x="164" y="426" type="curve" smooth="yes"/>
      <point x="214" y="426"/>
      <point x="292" y="368"/>
      <point x="354" y="368" type="curve" smooth="yes"/>
      <point x="394" y="368"/>
      <point x="428" y="383"/>
      <point x="452" y="413" type="curve"/>
      <point x="446" y="442" type="line"/>
      <point x="427" y="420"/>
      <point x="396" y="405"/>
      <point x="361" y="405" type="curve" smooth="yes"/>
    </contour>
    <contour>
      <point x="282" y="247"/>
      <point x="222" y="305"/>
      <point x="152" y="305" type="curve" smooth="yes"/>
      <point x="117" y="305"/>
      <point x="77" y="291"/>
      <point x="52" y="259" type="curve"/>
      <point x="59" y="231" type="line"/>
      <point x="76" y="252"/>
      <point x="108" y="268"/>
      <point x="145" y="268" type="curve" smooth="yes"/>
      <point x="204" y="268"/>
      <point x="268" y="210"/>
      <point x="335" y="210" type="curve" smooth="yes"/>
      <point x="368" y="210"/>
      <point x="410" y="225"/>
      <point x="433" y="255" type="curve"/>
      <point x="427" y="284" type="line"/>
      <point x="409" y="264"/>
      <point x="376" y="247"/>
      <point x="342" y="247" type="curve" smooth="yes"/>
    </contour>
  </outline>
</glyph>
<glyph name="lessequal" format="1">
  <advance width="505"/>
  <unicode hex="2264"/>
  <note>
    lessequal
  </note>
  <outline>
    <contour>
      <point x="72" y="364" type="line"/>
      <point x="69" y="344" type="line"/>
      <point x="421" y="156" type="line"/>
      <point x="425" y="188" type="line"/>
      <point x="425" y="199"/>
      <point x="422" y="200"/>
      <point x="412" y="206" type="curve"/>
      <point x="154" y="342" type="line"/>
      <point x="145" y="346"/>
      <point x="131" y="352"/>
      <point x="117" y="354" type="curve"/>
      <point x="131" y="357"/>
      <point x="145" y="361"/>
      <point x="157" y="366" type="curve" smooth="yes"/>
      <point x="449" y="502" type="line" smooth="yes"/>
      <point x="459" y="507"/>
      <point x="464" y="511"/>
      <point x="466" y="520" type="curve"/>
      <point x="470" y="552" type="line"/>
    </contour>
    <contour>
      <point x="36" y="76" type="line"/>
      <point x="32" y="40" type="line"/>
      <point x="407" y="40" type="line"/>
      <point x="411" y="76" type="line"/>
    </contour>
  </outline>
</glyph>
<glyph name="greaterequal" format="1">
  <advance width="482"/>
  <unicode hex="2265"/>
  <note>
    greaterequal
  </note>
  <outline>
    <contour>
      <point x="447" y="364" type="line"/>
      <point x="95" y="552" type="line"/>
      <point x="91" y="520" type="line"/>
      <point x="91" y="511"/>
      <point x="96" y="507"/>
      <point x="104" y="502" type="curve"/>
      <point x="363" y="366" type="line"/>
      <point x="371" y="361"/>
      <point x="386" y="356"/>
      <point x="399" y="354" type="curve"/>
      <point x="386" y="352"/>
      <point x="371" y="347"/>
      <point x="360" y="342" type="curve" smooth="yes"/>
      <point x="68" y="206" type="line" smooth="yes"/>
      <point x="58" y="201"/>
      <point x="53" y="197"/>
      <point x="51" y="188" type="curve"/>
      <point x="47" y="156" type="line"/>
      <point x="445" y="344" type="line"/>
    </contour>
    <contour>
      <point x="408" y="40" type="line"/>
      <point x="412" y="76" type="line"/>
      <point x="37" y="76" type="line"/>
      <point x="32" y="40" type="line"/>
    </contour>
  </outline>
</glyph>
<glyph name="circumflex.case" format="1">
  <advance width="455"/>
  <note>
    circumflex.case
  </note>
  <outline>
    <contour>
      <point x="368" y="771" type="line"/>
      <point x="263" y="870" type="line"/>
      <point x="218" y="870" type="line"/>
      <point x="88" y="771" type="line"/>
      <point x="126" y="771" type="line" smooth="yes"/>
      <point x="129" y="771"/>
      <point x="131" y="771"/>
      <point x="134" y="772" type="curve" smooth="yes"/>
      <point x="137" y="773"/>
      <point x="140" y="774"/>
      <point x="143" y="776" type="curve"/>
      <point x="229" y="838" type="line"/>
      <point x="232" y="840"/>
      <point x="234" y="841"/>
      <point x="235" y="842" type="curve" smooth="yes"/>
      <point x="236" y="843"/>
      <point x="237" y="843"/>
      <point x="238" y="844" type="curve"/>
      <point x="240" y="842" type="line" smooth="yes"/>
      <point x="241" y="841"/>
      <point x="243" y="840"/>
      <point x="245" y="838" type="curve"/>
      <point x="316" y="776" type="line"/>
      <point x="318" y="774"/>
      <point x="320" y="773"/>
      <point x="323" y="772" type="curve" smooth="yes"/>
      <point x="326" y="771"/>
      <point x="329" y="771"/>
      <point x="332" y="771" type="curve" smooth="yes"/>
    </contour>
  </outline>
</glyph>
<glyph name="circumflexcomb.case" format="1">
  <advance width="300"/>
  <outline>
    <contour>
      <point x="290" y="609" type="line"/>
      <point x="185" y="708" type="line"/>
      <point x="140" y="708" type="line"/>
      <point x="10" y="609" type="line"/>
      <point x="47" y="609" type="line" smooth="yes"/>
      <point x="50" y="609"/>
      <point x="57" y="609"/>
      <point x="64" y="614" type="curve"/>
      <point x="150" y="676" type="line"/>
      <point x="159" y="684" type="line"/>
      <point x="167" y="676" type="line"/>
      <point x="237" y="614" type="line"/>
      <point x="240" y="611"/>
      <point x="248" y="609"/>
      <point x="253" y="609" type="curve" smooth="yes"/>
    </contour>
    <contour>
      <point x="159" y="708" type="move" name="top"/>
    </contour>
    <contour>
      <point x="150" y="498" type="move" name="_top"/>
    </contour>
  </outline>
</glyph>
<glyph name="dieresis.case" format="1">
  <advance width="467"/>
  <note>
    dieresis.case
  </note>
  <outline>
    <contour>
      <point x="173" y="837"/>
      <point x="172" y="843"/>
      <point x="170" y="848" type="curve" smooth="yes"/>
      <point x="168" y="853"/>
      <point x="166" y="857"/>
      <point x="163" y="861" type="curve" smooth="yes"/>
      <point x="160" y="865"/>
      <point x="156" y="868"/>
      <point x="151" y="870" type="curve" smooth="yes"/>
      <point x="146" y="872"/>
      <point x="141" y="874"/>
      <point x="136" y="874" type="curve" smooth="yes"/>
      <point x="131" y="874"/>
      <point x="125" y="872"/>
      <point x="120" y="870" type="curve" smooth="yes"/>
      <point x="115" y="868"/>
      <point x="110" y="865"/>
      <point x="106" y="861" type="curve" smooth="yes"/>
      <point x="102" y="857"/>
      <point x="99" y="853"/>
      <point x="96" y="848" type="curve" smooth="yes"/>
      <point x="93" y="843"/>
      <point x="92" y="837"/>
      <point x="91" y="832" type="curve" smooth="yes"/>
      <point x="90" y="827"/>
      <point x="90" y="822"/>
      <point x="92" y="817" type="curve" smooth="yes"/>
      <point x="94" y="812"/>
      <point x="96" y="809"/>
      <point x="99" y="805" type="curve"/>
      <point x="102" y="802"/>
      <point x="106" y="798"/>
      <point x="111" y="796" type="curve" smooth="yes"/>
      <point x="116" y="794"/>
      <point x="121" y="793"/>
      <point x="126" y="793" type="curve" smooth="yes"/>
      <point x="131" y="793"/>
      <point x="137" y="794"/>
      <point x="142" y="796" type="curve" smooth="yes"/>
      <point x="147" y="798"/>
      <point x="152" y="801"/>
      <point x="156" y="805" type="curve"/>
      <point x="160" y="808"/>
      <point x="163" y="812"/>
      <point x="166" y="817" type="curve" smooth="yes"/>
      <point x="169" y="822"/>
      <point x="171" y="827"/>
      <point x="172" y="832" type="curve" smooth="yes"/>
    </contour>
    <contour>
      <point x="381" y="837"/>
      <point x="380" y="843"/>
      <point x="378" y="848" type="curve" smooth="yes"/>
      <point x="376" y="853"/>
      <point x="374" y="857"/>
      <point x="371" y="861" type="curve" smooth="yes"/>
      <point x="368" y="865"/>
      <point x="364" y="868"/>
      <point x="359" y="870" type="curve" smooth="yes"/>
      <point x="354" y="872"/>
      <point x="349" y="873"/>
      <point x="344" y="873" type="curve" smooth="yes"/>
      <point x="333" y="873"/>
      <point x="323" y="869"/>
      <point x="314" y="861" type="curve" smooth="yes"/>
      <point x="305" y="853"/>
      <point x="300" y="843"/>
      <point x="299" y="832" type="curve"/>
      <point x="298" y="827"/>
      <point x="298" y="822"/>
      <point x="300" y="817" type="curve" smooth="yes"/>
      <point x="302" y="812"/>
      <point x="304" y="809"/>
      <point x="307" y="805" type="curve"/>
      <point x="310" y="802"/>
      <point x="314" y="798"/>
      <point x="319" y="796" type="curve" smooth="yes"/>
      <point x="324" y="794"/>
      <point x="328" y="793"/>
      <point x="334" y="793" type="curve" smooth="yes"/>
      <point x="339" y="793"/>
      <point x="345" y="794"/>
      <point x="350" y="796" type="curve" smooth="yes"/>
      <point x="355" y="798"/>
      <point x="360" y="801"/>
      <point x="364" y="805" type="curve"/>
      <point x="368" y="808"/>
      <point x="372" y="812"/>
      <point x="375" y="817" type="curve" smooth="yes"/>
      <point x="378" y="822"/>
      <point x="379" y="827"/>
      <point x="380" y="832" type="curve" smooth="yes"/>
    </contour>
  </outline>
</glyph>
<glyph name="dieresiscomb.case" format="1">
  <advance width="300"/>
  <outline>
    <contour>
      <point x="274" y="635"/>
      <point x="295" y="653"/>
      <point x="297" y="676" type="curve" smooth="yes"/>
      <point x="299" y="698"/>
      <point x="284" y="716"/>
      <point x="262" y="716" type="curve" smooth="yes"/>
      <point x="239" y="716"/>
      <point x="218" y="698"/>
      <point x="216" y="676" type="curve" smooth="yes"/>
      <point x="214" y="653"/>
      <point x="229" y="635"/>
      <point x="252" y="635" type="curve" smooth="yes"/>
    </contour>
    <contour>
      <point x="66" y="635"/>
      <point x="87" y="653"/>
      <point x="89" y="676" type="curve" smooth="yes"/>
      <point x="91" y="698"/>
      <point x="76" y="716"/>
      <point x="54" y="716" type="curve" smooth="yes"/>
      <point x="31" y="716"/>
      <point x="10" y="698"/>
      <point x="8" y="676" type="curve" smooth="yes"/>
      <point x="6" y="653"/>
      <point x="21" y="635"/>
      <point x="44" y="635" type="curve" smooth="yes"/>
    </contour>
    <contour>
      <point x="153" y="716" type="move" name="top"/>
    </contour>
    <contour>
      <point x="153" y="498" type="move" name="_top"/>
    </contour>
  </outline>
</glyph>
<glyph name="hungarumlautcomb.case" format="1">
  <advance width="481"/>
  <note>
    hungarumlaut.case
  </note>
  <outline>
    <contour>
      <point x="244" y="882" type="line"/>
      <point x="211" y="882" type="line" smooth="yes"/>
      <point x="196" y="882"/>
      <point x="188" y="877"/>
      <point x="177" y="866" type="curve"/>
      <point x="89" y="771" type="line"/>
      <point x="112" y="771" type="line" smooth="yes"/>
      <point x="121" y="771"/>
      <point x="126" y="774"/>
      <point x="132" y="780" type="curve"/>
    </contour>
    <contour>
      <point x="396" y="882" type="line"/>
      <point x="358" y="882" type="line" smooth="yes"/>
      <point x="343" y="882"/>
      <point x="337" y="877"/>
      <point x="323" y="866" type="curve"/>
      <point x="221" y="771" type="line"/>
      <point x="247" y="771" type="line" smooth="yes"/>
      <point x="256" y="771"/>
      <point x="259" y="774"/>
      <point x="268" y="780" type="curve" smooth="yes"/>
    </contour>
    <contour>
      <point x="215" y="708" type="move" name="_top"/>
    </contour>
  </outline>
</glyph>
<glyph name="macroncomb.case" format="1">
  <advance width="389"/>
  <note>
    macron.case
  </note>
  <outline>
    <component base="macroncomb" yOffset="209"/>
    <contour>
      <point x="196" y="824" type="move" name="top"/>
    </contour>
    <contour>
      <point x="187" y="708" type="move" name="_top"/>
    </contour>
  </outline>
</glyph>
<glyph name="ring.case" format="1">
  <advance width="332"/>
  <note>
    ring.case
  </note>
  <outline>
    <contour>
      <point x="85" y="803"/>
      <point x="85" y="793"/>
      <point x="88" y="783" type="curve" smooth="yes"/>
      <point x="91" y="773"/>
      <point x="96" y="765"/>
      <point x="103" y="758" type="curve" smooth="yes"/>
      <point x="110" y="751"/>
      <point x="118" y="746"/>
      <point x="128" y="742" type="curve" smooth="yes"/>
      <point x="138" y="738"/>
      <point x="148" y="736"/>
      <point x="159" y="736" type="curve" smooth="yes"/>
      <point x="170" y="736"/>
      <point x="182" y="738"/>
      <point x="193" y="742" type="curve" smooth="yes"/>
      <point x="204" y="746"/>
      <point x="213" y="751"/>
      <point x="221" y="758" type="curve" smooth="yes"/>
      <point x="229" y="765"/>
      <point x="236" y="773"/>
      <point x="242" y="783" type="curve" smooth="yes"/>
      <point x="248" y="793"/>
      <point x="252" y="803"/>
      <point x="253" y="815" type="curve" smooth="yes"/>
      <point x="254" y="826"/>
      <point x="253" y="837"/>
      <point x="250" y="847" type="curve" smooth="yes"/>
      <point x="247" y="857"/>
      <point x="242" y="865"/>
      <point x="235" y="872" type="curve" smooth="yes"/>
      <point x="228" y="879"/>
      <point x="221" y="884"/>
      <point x="211" y="888" type="curve" smooth="yes"/>
      <point x="201" y="892"/>
      <point x="190" y="894"/>
      <point x="179" y="894" type="curve" smooth="yes"/>
      <point x="168" y="894"/>
      <point x="157" y="892"/>
      <point x="146" y="888" type="curve" smooth="yes"/>
      <point x="135" y="884"/>
      <point x="125" y="879"/>
      <point x="117" y="872" type="curve" smooth="yes"/>
      <point x="109" y="865"/>
      <point x="102" y="857"/>
      <point x="96" y="847" type="curve" smooth="yes"/>
      <point x="90" y="837"/>
      <point x="87" y="826"/>
      <point x="86" y="815" type="curve" smooth="yes"/>
    </contour>
    <contour>
      <point x="114" y="832"/>
      <point x="121" y="845"/>
      <point x="133" y="856" type="curve" smooth="yes"/>
      <point x="145" y="867"/>
      <point x="160" y="872"/>
      <point x="177" y="872" type="curve" smooth="yes"/>
      <point x="194" y="872"/>
      <point x="207" y="867"/>
      <point x="216" y="856" type="curve" smooth="yes"/>
      <point x="225" y="845"/>
      <point x="229" y="832"/>
      <point x="227" y="815" type="curve" smooth="yes"/>
      <point x="225" y="798"/>
      <point x="218" y="785"/>
      <point x="206" y="774" type="curve" smooth="yes"/>
      <point x="194" y="763"/>
      <point x="180" y="758"/>
      <point x="163" y="758" type="curve" smooth="yes"/>
      <point x="146" y="758"/>
      <point x="132" y="763"/>
      <point x="123" y="774" type="curve" smooth="yes"/>
      <point x="114" y="785"/>
      <point x="110" y="798"/>
      <point x="112" y="815" type="curve" smooth="yes"/>
    </contour>
  </outline>
</glyph>
<glyph name="tilde.case" format="1">
  <advance width="443"/>
  <note>
    tilde.case
  </note>
  <outline>
    <contour>
      <point x="270" y="808"/>
      <point x="261" y="811"/>
      <point x="253" y="816" type="curve" smooth="yes"/>
      <point x="245" y="821"/>
      <point x="237" y="827"/>
      <point x="228" y="833" type="curve" smooth="yes"/>
      <point x="219" y="839"/>
      <point x="211" y="845"/>
      <point x="202" y="850" type="curve" smooth="yes"/>
      <point x="193" y="855"/>
      <point x="182" y="858"/>
      <point x="171" y="858" type="curve" smooth="yes"/>
      <point x="160" y="858"/>
      <point x="149" y="856"/>
      <point x="140" y="852" type="curve" smooth="yes"/>
      <point x="131" y="848"/>
      <point x="123" y="843"/>
      <point x="116" y="835" type="curve" smooth="yes"/>
      <point x="109" y="827"/>
      <point x="103" y="818"/>
      <point x="99" y="808" type="curve" smooth="yes"/>
      <point x="95" y="798"/>
      <point x="91" y="787"/>
      <point x="90" y="776" type="curve"/>
      <point x="118" y="776" type="line"/>
      <point x="120" y="790"/>
      <point x="126" y="802"/>
      <point x="134" y="811" type="curve" smooth="yes"/>
      <point x="142" y="820"/>
      <point x="154" y="825"/>
      <point x="168" y="825" type="curve" smooth="yes"/>
      <point x="177" y="825"/>
      <point x="185" y="822"/>
      <point x="193" y="817" type="curve" smooth="yes"/>
      <point x="201" y="812"/>
      <point x="209" y="806"/>
      <point x="218" y="800" type="curve" smooth="yes"/>
      <point x="227" y="794"/>
      <point x="236" y="788"/>
      <point x="245" y="783" type="curve" smooth="yes"/>
      <point x="254" y="778"/>
      <point x="265" y="775"/>
      <point x="276" y="775" type="curve" smooth="yes"/>
      <point x="287" y="775"/>
      <point x="298" y="777"/>
      <point x="307" y="781" type="curve" smooth="yes"/>
      <point x="316" y="785"/>
      <point x="324" y="791"/>
      <point x="331" y="799" type="curve"/>
      <point x="338" y="806"/>
      <point x="343" y="815"/>
      <point x="347" y="825" type="curve" smooth="yes"/>
      <point x="351" y="835"/>
      <point x="354" y="845"/>
      <point x="355" y="857" type="curve"/>
      <point x="328" y="857" type="line"/>
      <point x="326" y="843"/>
      <point x="321" y="831"/>
      <point x="313" y="822" type="curve" smooth="yes"/>
      <point x="305" y="813"/>
      <point x="293" y="808"/>
      <point x="279" y="808" type="curve" smooth="yes"/>
    </contour>
  </outline>
</glyph>
